<?xml version="1.0" encoding="UTF-8"?>
<svg width="32px" height="32px" viewBox="0 0 32 32" version="1.1" xmlns="http://www.w3.org/2000/svg" xmlns:xlink="http://www.w3.org/1999/xlink">
    <!-- Generator: Sketch 52.4 (67378) - http://www.bohemiancoding.com/sketch -->
    <title>Annotation</title>
    <desc>Created with Sketch.</desc>
    <g id="Annotation" stroke="none" stroke-width="1" fill="none" fill-rule="evenodd" opacity="0.693382626">
        <path d="M22.8300198,23.0323072 L29.7931034,26.4804525 L29.7931034,8.33333333 C29.7931034,7.13671638 28.8050422,6.16666667 27.5862069,6.16666667 L4.4137931,6.16666667 C3.19495779,6.16666667 2.20689655,7.13671638 2.20689655,8.33333333 L2.20689655,20.8656405 C2.20689655,22.0622575 3.19495779,23.0323072 4.4137931,23.0323072 L22.8300198,23.0323072 Z M27.5862069,4 C30.0238775,4 32,5.94009942 32,8.33333333 L32,30 L22.3049485,25.1989739 L4.4137931,25.1989739 C1.97612248,25.1989739 -1.42108547e-14,23.2588745 -4.97379915e-14,20.8656405 L-4.97379915e-14,8.33333333 C-4.97379915e-14,5.94009942 1.97612248,4 4.4137931,4 L27.5862069,4 Z M6.85714286,15 L16.1428571,15 C16.6162441,15 17,15.3837559 17,15.8571429 L17,17.1428571 C17,17.6162441 16.6162441,18 16.1428571,18 L6.85714286,18 C6.38375593,18 6,17.6162441 6,17.1428571 L6,15.8571429 C6,15.3837559 6.38375593,15 6.85714286,15 Z M7.85714286,10 L23.1428571,10 C23.6162441,10 24,10.3837559 24,10.8571429 L24,12.1428571 C24,12.6162441 23.6162441,13 23.1428571,13 L7.85714286,13 C7.38375593,13 7,12.6162441 7,12.1428571 L7,10.8571429 C7,10.3837559 7.38375593,10 7.85714286,10 Z" id="合并形状" fill="#0A897C" fill-rule="nonzero"></path>
    </g>
</svg>