<?xml version="1.0" encoding="UTF-8"?>
<svg width="32px" height="32px" viewBox="0 0 32 32" version="1.1" xmlns="http://www.w3.org/2000/svg" xmlns:xlink="http://www.w3.org/1999/xlink">
    <!-- Generator: Sketch 52.4 (67378) - http://www.bohemiancoding.com/sketch -->
    <title>Associations</title>
    <desc>Created with Sketch.</desc>
    <g id="Associations" stroke="none" stroke-width="1" fill="none" fill-rule="evenodd" opacity="0.693382626">
        <path d="M20.8379788,5.93036689 C20.8310661,5.81654535 20.8275592,5.70179654 20.8275592,5.5862204 C20.8275592,2.49770915 23.3318279,0 26.4137796,0 C29.4957313,0 32,2.49770915 32,5.5862204 C32,8.67473166 29.4957313,11.1724408 26.4137796,11.1724408 C25.8803984,11.1724408 25.3643198,11.0976298 24.8755307,10.9578924 L18.9023859,21.8780735 C20.3098493,22.8917573 21.2271246,24.5445676 21.2271246,26.4137796 C21.2271246,29.5022908 18.7228559,32 15.6409042,32 C12.5589524,32 10.0546837,29.5022908 10.0546837,26.4137796 C10.0546837,24.5925685 10.9254531,22.9767875 12.2719695,21.9574242 L7.38312789,11.5952485 C6.81906697,11.7867822 6.21465321,11.8906325 5.5862204,11.8906325 C2.50426869,11.8906325 0,9.39292335 0,6.3044121 C0,3.21590085 2.50426869,0.718191696 5.5862204,0.718191696 C8.54273583,0.718191696 10.967635,3.01672343 11.1601256,5.93036689 L20.8379788,5.93036689 Z M22.6306307,9.69645286 C22.1423809,9.24691279 21.734357,8.71144301 21.4306438,8.11388217 L10.8729882,8.11388217 C10.6132035,8.87322728 10.1944557,9.55856374 9.65660951,10.1304342 L14.724091,20.9024682 C15.0224323,20.8531896 15.3287043,20.8275592 15.6409042,20.8275592 C15.8511411,20.8275592 16.05869,20.8391819 16.2629391,20.8618221 L22.6306307,9.69645286 Z M8.97314022,7.60782081 C9.13101897,7.20336715 9.21757493,6.76377306 9.21757493,6.3044121 C9.21757493,4.31553164 7.59499475,2.69720156 5.5862204,2.69720156 C3.57744605,2.69720156 1.95486588,4.31553164 1.95486588,6.3044121 C1.95486588,8.29329256 3.57744605,9.91162264 5.5862204,9.91162264 C6.59143237,9.91162264 7.49993715,9.50637537 8.15680546,8.85223786 L8.47683987,8.44984277 L8.97314022,7.60782081 Z M8.71694464,8.1329721 C8.72071156,8.12662119 8.72445945,8.12025785 8.72818823,8.11388217 L8.70796417,8.11388217 L8.71694464,8.1329721 Z M15.6409042,30.0209901 C17.6496785,30.0209901 19.2722587,28.4026601 19.2722587,26.4137796 C19.2722587,24.4248991 17.6496785,22.8065691 15.6409042,22.8065691 C13.6321298,22.8065691 12.0095496,24.4248991 12.0095496,26.4137796 C12.0095496,28.4026601 13.6321298,30.0209901 15.6409042,30.0209901 Z M26.4137796,9.19343094 C28.4225539,9.19343094 30.0451341,7.57510086 30.0451341,5.5862204 C30.0451341,3.59733995 28.4225539,1.97900986 26.4137796,1.97900986 C24.4050052,1.97900986 22.7824251,3.59733995 22.7824251,5.5862204 C22.7824251,7.57510086 24.4050052,9.19343094 26.4137796,9.19343094 Z" id="合并形状" fill="#0A897C"></path>
    </g>
</svg>