<?xml version="1.0" encoding="UTF-8"?>
<svg width="115px" height="115px" viewBox="0 0 115 115" version="1.1" xmlns="http://www.w3.org/2000/svg" xmlns:xlink="http://www.w3.org/1999/xlink">
    <!-- Generator: Sketch 52.4 (67378) - http://www.bohemiancoding.com/sketch -->
    <title>细菌</title>
    <desc>Created with Sketch.</desc>
    <defs>
        <circle id="path-1" cx="57.5" cy="57.5" r="57.5"></circle>
        <circle id="path-3" cx="57.5" cy="57.5" r="44.7222222"></circle>
        <linearGradient x1="50%" y1="0%" x2="100%" y2="100%" id="linearGradient-5">
            <stop stop-color="#FFFFFF" offset="0%"></stop>
            <stop stop-color="#FFFFFF" stop-opacity="0" offset="100%"></stop>
        </linearGradient>
    </defs>
    <g id="Page-1" stroke="none" stroke-width="1" fill="none" fill-rule="evenodd">
        <g id="web3" transform="translate(-529.000000, -750.000000)">
            <g id="细菌" transform="translate(529.000000, 750.000000)">
                <g id="矩形-+-矩形-copy-4-+-矩形-copy-5-+-矩形-copy-6-+-矩形-copy-+-矩形-+-椭圆形-+-椭圆形-copy-6-+-椭圆形-copy-9-+-椭圆形-copy-8-+-椭圆形-copy-+-椭圆形-copy-10-+-椭圆形-copy-7-+-椭圆形-copy-11-Mask-2-Copy-Copy">
                    <g id="矩形-+-矩形-copy-4-+-矩形-copy-5-+-矩形-copy-6-+-矩形-copy-+-矩形-+-椭圆形-+-椭圆形-copy-6-+-椭圆形-copy-9-+-椭圆形-copy-8-+-椭圆形-copy-+-椭圆形-copy-10-+-椭圆形-copy-7-+-椭圆形-copy-11-Mask">
                        <mask id="mask-2" fill="white">
                            <use xlink:href="#path-1"></use>
                        </mask>
                        <use id="Mask" fill="#0A897C" opacity="0.044678" xlink:href="#path-1"></use>
                        <mask id="mask-4" fill="white">
                            <use xlink:href="#path-3"></use>
                        </mask>
                        <use id="Mask" fill="#0A897C" opacity="0.104678199" xlink:href="#path-3"></use>
                        <circle id="椭圆形-copy-15" fill="#0A897C" opacity="0.602957589" mask="url(#mask-4)" transform="translate(54.170579, 26.219190) scale(-1, 1) translate(-54.170579, -26.219190) " cx="54.170579" cy="26.2191901" r="3.05946792"></circle>
                        <circle id="椭圆形-copy-16" fill="#0A897C" opacity="0.602957589" mask="url(#mask-4)" transform="translate(43.309468, 87.233079) scale(-1, 1) translate(-43.309468, -87.233079) " cx="43.3094679" cy="87.233079" r="1.78169014"></circle>
                        <circle id="椭圆形-copy-17" fill="#0A897C" opacity="0.602957589" mask="url(#mask-4)" transform="translate(57.524746, 57.524746) scale(-1, 1) translate(-57.524746, -57.524746) " cx="57.5247457" cy="57.5247457" r="2.42057903"></circle>
                        <circle id="椭圆形-copy-18" fill="#0A897C" opacity="0.602957589" mask="url(#mask-4)" transform="translate(62.955301, 78.927523) scale(-1, 1) translate(-62.955301, -78.927523) " cx="62.9553013" cy="78.9275235" r="1.4622457"></circle>
                        <circle id="椭圆形-copy-19" fill="#0A897C" opacity="0.444614955" mask="url(#mask-4)" transform="translate(70.244034, 87.813478) scale(-1, 1) translate(-70.244034, -87.813478) " cx="70.2440336" cy="87.8134781" r="1"></circle>
                        <circle id="椭圆形-copy-20" fill="#0A897C" opacity="0.444614955" mask="url(#mask-4)" transform="translate(87.397300, 61.841745) scale(-1, 1) translate(-87.397300, -61.841745) " cx="87.3973005" cy="61.8417449" r="1.14730047"></circle>
                        <circle id="椭圆形-copy-22" fill="#0A897C" opacity="0.444614955" mask="url(#mask-4)" transform="translate(35.487578, 43.473689) scale(-1, 1) translate(-35.487578, -43.473689) " cx="35.4875782" cy="43.4736894" r="1.14730047"></circle>
                        <circle id="椭圆形-copy-23" fill="#0A897C" opacity="0.444614955" mask="url(#mask-4)" transform="translate(30.695912, 65.036189) scale(-1, 1) translate(-30.695912, -65.036189) " cx="30.6959116" cy="65.0361894" r="1.14730047"></circle>
                        <circle id="椭圆形-copy-21" fill="#0A897C" opacity="0.444614955" mask="url(#mask-4)" transform="translate(57.848689, 49.063967) scale(-1, 1) translate(-57.848689, -49.063967) " cx="57.8486894" cy="49.0639671" r="1.14730047"></circle>
                        <g id="分组" mask="url(#mask-4)">
                            <g transform="translate(55.563721, 60.263775) rotate(35.000000) translate(-55.563721, -60.263775) translate(41.588027, 22.329747)">
                                <path d="M1.09196907,16.2952503 C7.48023158,17.3822408 11.7893369,17.925736 14.019285,17.925736 C16.2492332,17.925736 20.5583385,17.3822408 26.946601,16.2952503 L26.9465961,16.2952213 C32.6876605,15.3183543 38.1336199,19.1804995 39.1104868,24.921564 C39.2099155,25.5059079 39.2598954,26.0975952 39.2598954,26.690338 L39.2598954,26.690338 C39.2598954,32.2440323 34.7577366,36.7461911 29.2040423,36.7461911 C28.4868687,36.7461911 27.7717529,36.6694696 27.0709011,36.517336 C20.0780779,34.9994269 15.4251478,34.2404631 13.1121068,34.2404631 C10.9091444,34.2404631 6.82816626,34.928907 0.869172375,36.3057947 L0.869160512,36.3057434 C-4.44128125,37.5327764 -9.74095165,34.2225195 -10.9679846,28.9120777 C-11.1363329,28.1834878 -11.2213253,27.4381243 -11.2213253,26.690338 L-11.2213253,26.690338 C-11.2213253,20.8667575 -6.50038052,16.1458127 -0.676800017,16.1458127 C-0.0840572788,16.1458127 0.507630017,16.1957926 1.091974,16.2952213 Z" id="矩形" stroke="none" fill="#0A897C" fill-rule="evenodd" transform="translate(14.019285, 26.445158) rotate(82.000000) translate(-14.019285, -26.445158) "></path>
                                <path d="M13.5681964,48.9064945 C15.708312,53.7062035 14.7224625,57.5162578 10.6106479,60.3366576 C4.44292591,64.5672573 6.00751142,73.675653 11.770141,75.4167304 C7.42370892,72.9871276 7.00967508,66.7218132 8.97390037,64.1434802 C10.9381257,61.5651471 14.4127229,60.318304 15.703846,57.5570842 C16.5645948,55.7162709 17.1545107,52.832741 17.4735937,48.9064945 L13.5681964,48.9064945 Z" id="路径" stroke="none" fill="#0A897C" fill-rule="evenodd"></path>
                                <path d="M7.48954447,6.83881064 C4.99071573,10.6712429 5.42695737,15.120007 8.79826939,20.1851028" id="路径-2" stroke="url(#linearGradient-5)" stroke-width="1.536" fill="none" stroke-linecap="round"></path>
                                <circle id="椭圆形" stroke="none" fill="#FFFFFF" fill-rule="evenodd" cx="9.71830986" cy="5.30907668" r="1"></circle>
                            </g>
                        </g>
                    </g>
                </g>
            </g>
        </g>
    </g>
</svg>