<?xml version="1.0" encoding="UTF-8"?>
<svg width="24px" height="24px" viewBox="0 0 24 24" version="1.1" xmlns="http://www.w3.org/2000/svg" xmlns:xlink="http://www.w3.org/1999/xlink">
    <!-- Generator: Sketch 52.4 (67378) - http://www.bohemiancoding.com/sketch -->
    <title>叉</title>
    <desc>Created with Sketch.</desc>
    <g id="Page-1" stroke="none" stroke-width="1" fill="none" fill-rule="evenodd">
        <g id="web2.3" transform="translate(-1570.000000, -95.000000)">
            <g id="叉" transform="translate(1570.000000, 95.000000)">
                <path d="M12,24 C5.372583,24 0,18.627417 0,12 C0,5.372583 5.372583,0 12,0 C18.627417,0 24,5.372583 24,12 C24,18.627417 18.627417,24 12,24 Z M12,22 C17.5228475,22 22,17.5228475 22,12 C22,6.4771525 17.5228475,2 12,2 C6.4771525,2 2,6.4771525 2,12 C2,17.5228475 6.4771525,22 12,22 Z" id="椭圆形" fill="#0A897C" fill-rule="nonzero"></path>
                <path d="M13.3137085,11.3137085 L19.3137085,11.3137085 C19.8659932,11.3137085 20.3137085,11.7614237 20.3137085,12.3137085 C20.3137085,12.8659932 19.8659932,13.3137085 19.3137085,13.3137085 L13.3137085,13.3137085 L13.3137085,19.3137085 C13.3137085,19.8659932 12.8659932,20.3137085 12.3137085,20.3137085 C11.7614237,20.3137085 11.3137085,19.8659932 11.3137085,19.3137085 L11.3137085,13.3137085 L5.3137085,13.3137085 C4.76142375,13.3137085 4.3137085,12.8659932 4.3137085,12.3137085 C4.3137085,11.7614237 4.76142375,11.3137085 5.3137085,11.3137085 L11.3137085,11.3137085 L11.3137085,5.3137085 C11.3137085,4.76142375 11.7614237,4.3137085 12.3137085,4.3137085 C12.8659932,4.3137085 13.3137085,4.76142375 13.3137085,5.3137085 L13.3137085,11.3137085 Z" id="合并形状" fill="#389F94" transform="translate(12.313708, 12.313708) rotate(45.000000) translate(-12.313708, -12.313708) "></path>
            </g>
        </g>
    </g>
</svg>