<?xml version="1.0" encoding="UTF-8"?>
<svg width="32px" height="32px" viewBox="0 0 32 32" version="1.1" xmlns="http://www.w3.org/2000/svg" xmlns:xlink="http://www.w3.org/1999/xlink">
    <!-- Generator: Sketch 52.4 (67378) - http://www.bohemiancoding.com/sketch -->
    <title>Core Gene</title>
    <desc>Created with Sketch.</desc>
    <g id="Core-Gene" stroke="none" stroke-width="1" fill="none" fill-rule="evenodd" opacity="0.693382626">
        <path d="M8.3820678,15.1088819 C8.93545729,13.0882413 9.4234256,12.6510797 9.4234256,12.6510797 L20.016837,12.6510797 C20.6782001,12.6510797 21.2119317,13.3096775 21.208064,14.1257662 C21.208064,14.9370824 20.6743325,15.5956802 20.016837,15.5956802 L8.36858402,15.5956802 C8.39166312,17.9103608 9.69886129,19.7058883 12.3051541,21.3488764 C12.8587774,21.6982852 13.0279401,22.4359259 12.6819256,22.99498 C12.335911,23.554034 11.6054358,23.7248561 11.0518125,23.3754473 C7.7992757,21.3217002 6.00384461,18.8292509 6.00384461,15.5292791 C6.00384461,11.6547239 8.18758092,9.13509841 12.5858104,6.80570655 C11.8553352,6.49123865 11.1786845,6.19618235 10.8788053,6.06030116 C7.55706551,4.54231413 6,3.27279556 6,1.19575449 C6,0.535760128 6.53055565,0 7.18413871,0 C7.83772176,0 8.36827741,0.535760128 8.36827741,1.19575449 C8.36827741,1.9256306 9.38325344,2.75256471 11.8553352,3.88231977 C12.4051139,4.13467055 14.4119983,4.99266322 15.450042,5.44301231 C16.4534842,5.0081925 18.4296118,4.16572911 18.9678567,3.92114296 C21.512986,2.76809399 22.5625635,1.9256306 22.5625635,1.19575449 C22.5625635,0.535760128 23.0931191,0 23.7467022,0 C24.4002852,0 24.9308409,0.535760128 24.9308409,1.19575449 C24.9308409,3.28444252 23.3468631,4.55396109 19.9366974,6.09912435 C19.3100266,6.38641602 16.9225262,7.39970148 16.0997805,7.76075721 C15.9998207,7.82675665 15.8921717,7.87334449 15.7768335,7.90440305 C12.8318652,9.23215641 10.8211362,10.4939103 9.64468666,11.9420156 C9.64468666,11.9420156 9.08337416,12.3535415 8.4836156,14.3374069 C8.43331134,14.5888556 8.39946208,14.8452892 8.3820678,15.1088819 Z M24.9923123,16.4707209 C24.9923123,20.3646877 22.7859565,22.8920778 18.3540256,25.225352 C19.1650728,25.5747608 19.9376817,25.904758 20.241344,26.0406392 C23.4816889,27.508156 25,28.7504984 25,30.8042455 C25,31.4642399 24.4695521,32 23.8161017,32 C23.1626514,32 22.6322035,31.4642399 22.6322035,30.8042455 C22.6322035,30.093781 21.6635594,29.3017878 19.2726999,28.2225029 C18.7345643,27.9779167 16.5474276,27.0539246 15.4750003,26.5880462 C14.444855,27.034513 12.5575367,27.8381532 12.0309326,28.078857 C9.48632006,29.231906 8.43695568,30.0743694 8.43695568,30.8042455 C8.43695568,31.4642399 7.90650775,32 7.25305741,32 C6.59960707,32 6.06915914,31.4642399 6.06915914,30.8042455 C6.06915914,28.7155575 7.64897144,27.4460389 11.0584447,25.9008756 C11.734958,25.5941724 14.4371674,24.4450057 15.0521795,24.169361 C18.0849578,22.8144314 20.152936,21.5293836 21.3522095,20.0541021 L11.9809628,20.0541021 C11.3275125,20.0541021 10.7970646,19.5183419 10.7970646,18.8583476 C10.7970646,18.1983532 11.3275125,17.6625931 11.9809628,17.6625931 L22.5130449,17.6625931 C22.5899214,17.2782434 22.6283596,16.8822468 22.6283596,16.4668386 C22.6283596,14.1219175 21.3214589,12.3088741 18.6922823,10.6511236 C18.1387714,10.3017148 17.9696431,9.56407407 18.3155874,9.00502002 C18.6615317,8.44596597 19.3918585,8.2751439 19.9453694,8.62455268 C23.1972458,10.6782998 24.9923123,13.1707491 24.9923123,16.4707209 Z" id="合并形状" fill="#0A897C"></path>
    </g>
</svg>