<?xml version="1.0" encoding="UTF-8"?>
<svg width="25px" height="25px" viewBox="0 0 25 25" version="1.1" xmlns="http://www.w3.org/2000/svg" xmlns:xlink="http://www.w3.org/1999/xlink">
    <!-- Generator: Sketch 52.4 (67378) - http://www.bohemiancoding.com/sketch -->
    <title>疾病 copy</title>
    <desc>Created with Sketch.</desc>
    <g id="Page-1" stroke="none" stroke-width="1" fill="none" fill-rule="evenodd">
        <g id="web1" transform="translate(-582.000000, -461.000000)">
            <g id="Disease" transform="translate(573.000000, 452.000000)">
                <g id="疾病-copy" transform="translate(5.000000, 5.000000)">
                    <g id="分组-6">
                        <g id="分组-3-copy-3">
                            <g id="分组">
                                <g id="xijun">
                                    <rect id="矩形" x="0" y="0" width="32" height="32"></rect>
                                </g>
                            </g>
                            <g id="分组-copy"></g>
                        </g>
                    </g>
                    <path d="M10.5075454,22.7778904 C10.0291879,22.0540423 9.57321653,21.3644384 9.09203733,20.6361143 C8.38989999,20.8939708 7.69184748,21.0900529 7.46806759,22.0252178 C7.27954638,22.8121886 6.23119112,23.1040198 5.45380655,22.7728481 C4.65795951,22.4336412 4.28935554,21.5664795 4.63611093,20.8498038 C4.99017605,20.1184058 5.92695043,19.7148898 6.67799847,20.0950011 C7.56510966,20.5444097 8.25066574,19.9966364 8.70120856,19.5955742 C9.02130493,19.3103492 8.88301125,18.4688841 8.77753077,17.9040696 C8.69878991,17.4828113 7.18153685,17.5498977 6.70823175,17.9699426 C6.0176771,18.5826452 5.15236075,18.6211498 4.51853714,18.0670938 C3.87350708,17.50325 3.824247,16.6141396 4.40451071,16.0114946 C4.97714217,15.416777 6.09176875,15.2806628 6.57574288,15.9203563 C7.18924972,16.7314329 7.99404581,16.5991476 8.83133257,16.6882636 C8.97411421,16.2770629 9.09972334,15.8919633 9.24100004,15.511879 C9.52546146,14.7477467 8.97989212,14.1729554 8.11011468,14.2839931 C7.68811206,14.3380828 7.20808841,14.4103463 6.8329272,14.2783037 C6.10018035,14.0204471 5.76645886,13.4274013 5.91335223,12.6955988 C6.05839129,11.9724248 6.56399895,11.5359857 7.36618825,11.5072152 C8.15773545,11.4790917 8.81660563,11.8370116 8.90058693,12.5667918 C8.99577469,13.3928065 9.50587034,13.7335773 10.1897333,14.0428272 C10.8993417,13.5440475 11.5945724,13.0557028 12.3353814,12.5350822 C12.0443896,11.9420363 11.8049421,11.3949371 10.8976486,11.4049947 C10.0247269,11.4148905 9.40038981,10.6642671 9.46534432,9.86133363 C9.52992258,9.06034156 10.2679098,8.47716455 11.1470126,8.53246767 C12.0178919,8.58733938 12.7474676,9.27888464 12.5651274,10.0764793 C12.3801805,10.8856954 12.7557179,11.365088 13.3781469,11.9354032 C14.2747715,11.3522532 15.1689774,10.7704513 16.0861606,10.174008 C15.767193,9.50904924 15.4586524,9.07325734 14.611476,9.06303799 C13.7043975,9.05230632 13.0701708,8.18519855 13.2278943,7.39914453 C13.3934651,6.57461291 14.2458551,6.02314551 15.1042111,6.18560351 C15.9439165,6.34455619 16.5079751,7.18149125 16.3213351,7.99235215 C16.1766992,8.61923779 16.2436692,8.75254772 17.0121048,9.36905223 C17.6405267,9.03690988 18.2814451,8.72339966 18.8925601,8.36547976 C19.3475909,8.09915651 19.2447172,7.07714066 18.7366909,6.67753443 C18.1743252,6.23513636 17.7823678,5.65826891 18.1662899,5.03890623 C18.4361856,4.6038154 18.9908921,4.21105802 19.5071688,4.05124249 C20.1395144,3.8552413 20.6736891,4.24662352 21.0048038,4.79814483 C21.3480119,5.37021268 21.3011705,5.97482607 20.8086504,6.37904313 C20.2052213,6.87439846 20.170312,7.41947538 20.2940668,8.04851813 C20.9777148,8.29310843 21.6487321,8.53314178 22.3602216,8.78757394 C22.804234,8.14823095 23.2968078,7.5755429 22.8589226,6.66712634 C22.5278348,5.98013799 23.1594279,5.1531796 23.945009,4.9815808 C24.7953566,4.79579895 25.6627153,5.25612808 25.8739451,6.00524146 C26.0792894,6.73283756 25.6255217,7.65665059 24.843891,7.7497033 C23.7305275,7.88225824 23.7221428,8.81033156 23.2587273,9.40712539 C23.2004913,9.48173473 23.3094923,9.70709969 23.3915925,9.83377649 C23.6626169,10.251125 23.956753,10.6551803 24.2694053,11.1028903 C24.9991691,10.903222 25.6809628,10.7745229 25.9338742,9.86114494 C26.1632707,9.03189461 27.2152271,8.74424285 28.0244843,9.10653092 C28.7636002,9.43748684 29.1062977,10.278817 28.7828152,10.9681513 C28.4015267,11.7811423 27.5664436,12.0936009 26.6866152,11.7526414 C25.633557,11.3443258 24.6453189,11.9122951 24.5491906,12.9772646 C24.5320181,13.1673068 24.4635163,13.3560546 24.4685417,13.5443711 C24.4784582,13.9248059 24.3950413,14.5572731 24.576629,14.6375719 C25.1395321,14.8866921 25.774135,15.1663895 26.4331664,14.64043 C27.1972753,14.0306935 28.1499053,14.20178 28.7102016,14.9507315 C29.2204585,15.6328934 29.0433319,16.4684533 28.2857534,16.953751 C27.5222358,17.4427428 26.5623229,17.3071949 26.1053841,16.4996506 C25.6815272,15.750699 24.9603361,15.8483895 24.3087488,15.7382955 C24.1812854,15.7167244 23.9084066,16.0073422 23.8410335,16.1971417 C23.6137062,16.8357297 23.226801,17.5343125 23.3503409,18.1277359 C23.4162091,18.4427561 24.2251437,19.0086222 25.0562764,18.6220396 C25.8674416,18.2448135 26.7737408,18.710832 27.0908542,19.520075 C27.3751006,20.2456488 26.9184305,21.0984927 26.1026161,21.366245 C25.3028185,21.6287124 24.328555,21.2533199 24.1574212,20.4452363 C23.962934,19.5282721 23.2633766,19.2733007 22.519047,18.9280538 C22.0043022,19.5909364 21.5113521,20.2256685 20.9876583,20.8999838 C21.4965983,21.4736965 21.9238414,22.0110887 22.9059522,21.8583647 C23.771806,21.7234369 24.5010324,22.4179482 24.5441383,23.2109859 C24.5848256,23.9572411 23.9293415,24.652076 23.125271,24.7149829 C22.2456308,24.7836602 21.5057355,24.2382327 21.3880004,23.4341398 C21.2351411,22.3892585 21.1755883,22.3057241 20.1800135,21.7454395 C19.5184022,22.2213268 18.8378984,22.6870757 18.187413,23.1872306 C17.768044,23.5098547 18.1228347,25.0501722 18.6842597,25.3119655 C19.3727719,25.6324864 19.9142296,26.1068098 19.7227522,26.830631 C19.6002873,27.2937374 19.1747373,27.891448 18.7438125,28.0228704 C18.2701043,28.1675592 17.5446134,27.9746049 17.0925656,27.6956895 C16.54963,27.3608507 16.3827692,26.6345489 16.7907974,26.1536193 C17.4195686,25.4121098 17.1652061,24.7415425 16.8981053,23.9677301 C16.2313879,24.08834 15.5484924,24.1784806 14.8860748,24.3420711 C14.302425,24.4860587 14.1394878,25.9012903 14.647541,26.3871274 C15.1106072,26.8297951 15.3577137,27.3081092 15.1429097,27.934078 C14.920796,28.5812675 14.4164783,28.9477081 13.7341202,28.9956231 C13.0315797,29.0448863 12.4987218,28.6744012 12.2120567,28.0810587 C11.9150989,27.4664417 12.1000727,26.921149 12.5967313,26.4381163 C12.8615478,26.1802058 13.2076045,25.8976232 13.2777994,25.5797179 C13.533855,24.4224507 12.8212637,23.6042016 11.5565726,23.4866117 C11.0656919,23.4410156 10.2653838,24.3906332 10.3758629,24.9109032 C10.5431267,25.6988987 10.1931464,26.2782198 9.47195543,26.5933209 C8.77634845,26.8968815 8.10070889,26.7562104 7.59579992,26.1543473 C6.86694982,25.2855947 7.4084343,23.8803668 8.57866322,23.8712529 C9.56966917,23.8635143 10.0269305,23.3600428 10.5075454,22.7778904 M14.0200271,21.9998502 C15.1729781,21.987631 16.0239488,21.1197873 15.9994857,19.9808509 C15.9755224,18.8614295 15.0632276,17.9815197 13.9454958,18.0002949 C12.8117488,18.0192997 11.9888582,18.8884699 12.0001141,20.0550079 C12.0118221,21.2353468 12.8188402,22.012401 14.0200271,21.9998502 M20.9999999,15.9936582 C21.0002134,15.4453265 20.3178356,15.0015139 19.4723726,15.0000039 C18.5574124,14.9986033 17.9989646,15.3751656 18.0000014,15.9927172 C18.0008248,16.5854521 18.6120892,17.0030254 19.4745072,16.9999835 C20.2968858,16.9972261 20.999573,16.5336302 20.9999999,15.9936582 M14.7282588,14.9858199 C14.8925942,14.99061 15.0569296,14.99521 15.2210342,15 C15.503725,14.6202932 16.0133533,14.2334392 15.9997324,13.8631604 C15.9879199,13.5439375 15.3840229,13.0050563 15.0347669,13.0000382 C14.6713128,12.994982 14.0307856,13.4929196 14.0016585,13.8091772 C13.9677217,14.1799883 14.4628827,14.591857 14.7282588,14.9858199" id="形状" fill="#FFFFFF" fill-rule="nonzero"></path>
                </g>
            </g>
        </g>
    </g>
</svg>