<?xml version="1.0" encoding="UTF-8"?>
<svg width="32px" height="32px" viewBox="0 0 32 32" version="1.1" xmlns="http://www.w3.org/2000/svg" xmlns:xlink="http://www.w3.org/1999/xlink">
    <!-- Generator: Sketch 52.4 (67378) - http://www.bohemiancoding.com/sketch -->
    <title>Disease</title>
    <desc>Created with Sketch.</desc>
    <g id="Disease" stroke="none" stroke-width="1" fill="none" fill-rule="evenodd" opacity="0.693382626">
        <path d="M8.80905444,23.5334685 C8.23502552,22.6648507 7.68785984,21.8373261 7.1104448,20.9633371 C6.26787999,21.272765 5.43021697,21.5080635 5.16168111,22.6302613 C4.93545566,23.5746263 3.67742934,23.9248237 2.74456785,23.5274177 C1.78955141,23.1203695 1.34722664,22.0797754 1.76333312,21.2197646 C2.18821127,20.3420869 3.31234051,19.8578677 4.21359816,20.3140013 C5.27813159,20.8532917 6.10079888,20.1959637 6.64145027,19.714689 C7.02556591,19.372419 6.8596135,18.362661 6.73303692,17.6848835 C6.6385479,17.1793736 4.81784422,17.2598772 4.2498781,17.7639311 C3.42121252,18.4991743 2.3828329,18.5453797 1.62224457,17.8805126 C0.848208499,17.2039 0.789096396,16.1369675 1.48541285,15.4137935 C2.17257061,14.7001324 3.5101225,14.5367954 4.09089145,15.3044276 C4.82709967,16.2777195 5.79285497,16.1189772 6.79759908,16.2259163 C6.96893705,15.7324754 7.11966801,15.2703559 7.28920004,14.8142548 C7.63055376,13.897296 6.97587055,13.2075465 5.93213762,13.3407917 C5.42573447,13.4056994 4.8497061,13.4924156 4.39951264,13.3339644 C3.52021642,13.0245365 3.11975063,12.3128815 3.29602267,11.4347185 C3.47006955,10.5669097 4.07679874,10.0431829 5.0394259,10.0086582 C5.98928254,9.97491009 6.77992676,10.404414 6.88070431,11.2801502 C6.99492963,12.2713678 7.60704441,12.6802928 8.42768,13.0513927 C9.27920999,12.452857 10.1134869,11.8668433 11.0024577,11.2420986 C10.6532675,10.5304436 10.3659306,9.87392457 9.27717832,9.88599364 C8.22967228,9.89786857 7.48046777,8.99712054 7.55841319,8.03360036 C7.6359071,7.07240987 8.52149182,6.37259746 9.57641511,6.43896121 C10.6214702,6.50480725 11.4969611,7.33466157 11.2781529,8.29177513 C11.0562165,9.26283443 11.5068615,9.83810561 12.2537763,10.5224839 C13.3297258,9.82270381 14.4027729,9.12454158 15.5033928,8.40880962 C15.1206316,7.61085908 14.7503829,7.08790881 13.7337712,7.07564559 C12.645277,7.06276759 11.8842049,6.02223826 12.0734732,5.07897344 C12.2721581,4.08953549 13.2950261,3.42777461 14.3250533,3.62272421 C15.3326998,3.81346743 16.0095702,4.8177895 15.7856022,5.79082257 C15.612039,6.54308535 15.6924031,6.70305727 16.6145257,7.44286268 C17.3686321,7.04429186 18.1377341,6.66807959 18.8710722,6.23857572 C19.4171091,5.91898781 19.2936606,4.6925688 18.684029,4.21304132 C18.0091903,3.68216363 17.5388413,2.98992269 17.9995479,2.24668748 C18.3234228,1.72457848 18.9890706,1.25326963 19.6086026,1.06149099 C20.3674172,0.826289554 21.0084269,1.29594823 21.4057646,1.95777379 C21.8176142,2.64425522 21.7614046,3.36979129 21.1703805,3.85485176 C20.4462656,4.44927815 20.4043744,5.10337045 20.5528802,5.85822175 C21.3732578,6.15173011 22.1784785,6.43977014 23.0322659,6.74508873 C23.5650808,5.97787714 24.1561694,5.29065148 23.6307072,4.20055161 C23.2334018,3.37616559 23.9913134,2.38381552 24.9340108,2.17789696 C25.9544279,1.95495874 26.9952584,2.5073537 27.2487341,3.40628975 C27.4951473,4.27940508 26.950626,5.38798071 26.0126692,5.49964396 C24.676633,5.65870988 24.6665714,6.77239787 24.1104728,7.48855047 C24.0405896,7.57808167 24.1713908,7.84851963 24.269911,8.00053179 C24.5951403,8.50135002 24.9481036,8.98621637 25.3232863,9.52346834 C26.1990029,9.2838664 27.0171554,9.12942747 27.320649,8.03337393 C27.5959249,7.03827353 28.8582725,6.69309142 29.8293811,7.12783711 C30.7163203,7.52498421 31.1275572,8.53458044 30.7393782,9.36178151 C30.281832,10.3373708 29.2797323,10.7123211 28.2239383,10.3031697 C26.9602685,9.81319095 25.7743827,10.4947542 25.6590287,11.7727175 C25.6384217,12.0007681 25.5562195,12.2272656 25.56225,12.4532453 C25.5741498,12.9097671 25.4740495,13.6687277 25.6919548,13.7650862 C26.3674385,14.0640305 27.128962,14.3996674 27.9197997,13.768516 C28.8367303,13.0368322 29.9798863,13.2421359 30.6522419,14.1408779 C31.2645502,14.959472 31.0519982,15.9621439 30.1429041,16.5445012 C29.226683,17.1312914 28.0747875,16.9686339 27.5264609,15.9995807 C27.0178326,15.1008388 26.1524034,15.2180674 25.3704986,15.0859547 C25.2175424,15.0600692 24.890088,15.4088106 24.8092402,15.63657 C24.5364474,16.4028756 24.0721612,17.241175 24.220409,17.953283 C24.2994509,18.3313073 25.2701725,19.0103466 26.2675316,18.5464475 C27.2409299,18.0937761 28.328489,18.6529984 28.709025,19.62409 C29.0501207,20.4947786 28.5021166,21.5181912 27.5231393,21.839494 C26.5633823,22.1544549 25.3942659,21.7039838 25.1889055,20.7342835 C24.9555208,19.6339265 24.1160519,19.3279608 23.2228564,18.9136646 C22.6051626,19.7091237 22.0136226,20.4708022 21.3851899,21.2799806 C21.995918,21.9684358 22.5086097,22.6133064 23.6871427,22.4300376 C24.7261672,22.2681243 25.6012389,23.1015379 25.652966,24.0531831 C25.7017907,24.9486893 24.9152098,25.7824912 23.9503252,25.8579795 C22.894757,25.9403922 22.0068826,25.2858793 21.8656005,24.3209678 C21.6821693,23.0671102 21.6107059,22.9668689 20.4160162,22.2945274 C19.6220827,22.8655922 18.8054781,23.4244908 18.0248955,24.0246767 C17.5216528,24.4118256 17.9474016,26.2602066 18.6211117,26.5743586 C19.4473263,26.9589836 20.0970755,27.5281717 19.8673026,28.3967571 C19.7203448,28.9524848 19.2096848,29.6697376 18.692575,29.8274445 C18.1241251,30.001071 17.2535361,29.7695259 16.7110788,29.4348274 C16.0595559,29.0330209 15.859323,28.1614587 16.3489568,27.5843432 C17.1034824,26.6945317 16.7982473,25.889851 16.4777264,24.9612761 C15.6776655,25.106008 14.8581908,25.2141767 14.0632897,25.4104853 C13.36291,25.5832705 13.1673854,27.2815484 13.7770492,27.8645528 C14.3327286,28.3957541 14.6292565,28.969731 14.3714917,29.7208936 C14.1049552,30.4975211 13.4997739,30.9372497 12.6809442,30.9947477 C11.8378957,31.0538635 11.1984661,30.6092814 10.854468,29.8972704 C10.4981186,29.15973 10.7200872,28.5053789 11.3160776,27.9257395 C11.6338574,27.6162469 12.0491254,27.2771479 12.1333593,26.8956614 C12.440626,25.5069408 11.5855164,24.525042 10.0678872,24.3839341 C9.4788303,24.3292188 8.51846055,25.4687598 8.65103544,26.0930839 C8.85175208,27.0386784 8.43177573,27.7338638 7.56634651,28.1119851 C6.73161815,28.4762577 5.92085067,28.3074524 5.31495991,27.5852168 C4.44033978,26.5427137 5.09012116,24.8564401 6.49439587,24.8455035 C7.68360301,24.8362172 8.23231661,24.2320514 8.80905444,23.5334685 Z M22.8127928,8.92021663 C21.3269482,6.78826405 12.652305,11.6686439 11.7114069,12.6258148 C10.7705088,13.5829857 8.65240603,14.6367605 8.93458891,18.1428571 C9.21677178,21.6489538 13.8937031,26.2979076 18,21.6489538 C22.1062969,17 24.2986374,11.0521692 22.8127928,8.92021663 Z M14.5250339,21.9998127 C13.0235502,22.0155013 12.0147776,21.0441834 12.0001426,19.5687599 C11.9860728,18.1105874 13.0146859,17.0241247 14.4318697,17.0003687 C15.8290346,16.9768997 16.9694031,18.0767869 16.9993572,19.4760637 C17.029936,20.8997341 15.9662226,21.9845387 14.5250339,21.9998127 Z M21.9999999,14.4904873 C21.9994307,15.3004452 21.0625143,15.9958391 19.9660096,15.9999752 C18.8161189,16.0045381 18.0010997,15.3781781 18.0000019,14.4890758 C17.9986195,13.5627483 18.7432165,12.9979049 19.9631634,13.0000058 C21.0904474,13.0022709 22.0002845,13.6679897 21.9999999,14.4904873 Z M14.5,16 C13.6715729,16 13,15.3284271 13,14.5 C13,13.6715729 13.6715729,13 14.5,13 C15.3284271,13 16,13.6715729 16,14.5 C16,15.3284271 15.3284271,16 14.5,16 Z" id="合并形状" fill="#0A897C" fill-rule="nonzero"></path>
    </g>
</svg>