<?xml version="1.0" encoding="UTF-8"?>
<svg width="115px" height="116px" viewBox="0 0 115 116" version="1.1" xmlns="http://www.w3.org/2000/svg" xmlns:xlink="http://www.w3.org/1999/xlink">
    <!-- Generator: Sketch 52.4 (67378) - http://www.bohemiancoding.com/sketch -->
    <title>疾病</title>
    <desc>Created with Sketch.</desc>
    <defs>
        <ellipse id="path-1" cx="57.5" cy="57.6" rx="57.5" ry="57.6"></ellipse>
        <ellipse id="path-3" cx="57.5" cy="57.6" rx="44.7222222" ry="44.8"></ellipse>
        <linearGradient x1="50%" y1="0%" x2="50%" y2="100%" id="linearGradient-5">
            <stop stop-color="#FFFFFF" stop-opacity="0" offset="0%"></stop>
            <stop stop-color="#FFFFFF" offset="100%"></stop>
        </linearGradient>
    </defs>
    <g id="Page-1" stroke="none" stroke-width="1" fill="none" fill-rule="evenodd">
        <g id="web3" transform="translate(-796.000000, -749.000000)">
            <g id="疾病" transform="translate(796.000000, 749.000000)">
                <g id="分组-6-copy">
                    <g id="分组-3" transform="translate(0.000000, 0.800000)">
                        <mask id="mask-2" fill="white">
                            <use xlink:href="#path-1"></use>
                        </mask>
                        <use id="Mask" fill="#0A897C" opacity="0.044678" transform="translate(57.500000, 57.600000) scale(-1, 1) translate(-57.500000, -57.600000) " xlink:href="#path-1"></use>
                        <mask id="mask-4" fill="white">
                            <use xlink:href="#path-3"></use>
                        </mask>
                        <use id="Mask" fill="#0A897C" opacity="0.104678199" transform="translate(57.500000, 57.600000) scale(-1, 1) translate(-57.500000, -57.600000) " xlink:href="#path-3"></use>
                        <ellipse id="椭圆形-copy-15" fill="#0A897C" opacity="0.602957589" mask="url(#mask-4)" transform="translate(65.022692, 26.185915) scale(-1, 1) translate(-65.022692, -26.185915) " cx="65.0226917" cy="26.1859155" rx="3.05946792" ry="3.06478873"></ellipse>
                        <ellipse id="椭圆形-copy-16" fill="#0A897C" opacity="0.602957589" mask="url(#mask-4)" transform="translate(46.503912, 81.144789) scale(-1, 1) translate(-46.503912, -81.144789) " cx="46.5039124" cy="81.1447887" rx="1.78169014" ry="1.78478873"></ellipse>
                        <ellipse id="椭圆形-copy-17" fill="#0A897C" opacity="0.602957589" mask="url(#mask-4)" transform="translate(93.781690, 57.464789) scale(-1, 1) translate(-93.781690, -57.464789) " cx="93.7816901" cy="57.4647887" rx="2.42057903" ry="2.42478873"></ellipse>
                        <ellipse id="椭圆形-copy-18" fill="#0A897C" opacity="0.602957589" mask="url(#mask-4)" transform="translate(32.128912, 76.344789) scale(-1, 1) translate(-32.128912, -76.344789) " cx="32.1289124" cy="76.3447887" rx="1.4622457" ry="1.46478873"></ellipse>
                        <ellipse id="椭圆形-copy-19" fill="#0A897C" opacity="0.444614955" mask="url(#mask-4)" transform="translate(68.847027, 82.118310) scale(-1, 1) translate(-68.847027, -82.118310) " cx="68.8470266" cy="82.1183099" rx="1" ry="1"></ellipse>
                        <ellipse id="椭圆形-copy-20" fill="#0A897C" opacity="0.444614955" mask="url(#mask-4)" transform="translate(30.536189, 54.909296) scale(-1, 1) translate(-30.536189, -54.909296) " cx="30.5361894" cy="54.9092958" rx="1.14730047" ry="1.14929577"></ellipse>
                        <ellipse id="椭圆形-copy-22" fill="#0A897C" opacity="0.444614955" mask="url(#mask-4)" transform="translate(26.063967, 35.069296) scale(-1, 1) translate(-26.063967, -35.069296) " cx="26.0639671" cy="35.0692958" rx="1.14730047" ry="1.14929577"></ellipse>
                        <ellipse id="椭圆形-copy-21" fill="#0A897C" opacity="0.444614955" mask="url(#mask-4)" transform="translate(76.536189, 49.149296) scale(-1, 1) translate(-76.536189, -49.149296) " cx="76.5361894" cy="49.1492958" rx="1.14730047" ry="1.14929577"></ellipse>
                    </g>
                    <g id="分组-5" transform="translate(57.335196, 58.532966) rotate(25.000000) translate(-57.335196, -58.532966) translate(28.335196, 29.532966)">
                        <g id="分组-4" transform="translate(28.841086, 28.977058) rotate(16.000000) translate(-28.841086, -28.977058) translate(5.841086, 5.977058)">
                            <g id="xijun2" transform="translate(-0.000000, -0.000000)" fill="#0A897C" fill-rule="nonzero">
                                <path d="M11.9738835,34.5513183 C11.0937058,33.2194378 10.2547184,31.9505667 9.36934869,30.6104503 C8.07741598,31.0849063 6.79299936,31.4456974 6.38124436,33.1664007 C6.03436535,34.614427 4.10539166,35.1513964 2.67500404,34.5420405 C1.21064549,33.9178998 0.532414186,32.3223223 1.17044412,31.003639 C1.82192394,29.6578666 3.54558878,28.9153972 4.92751718,29.6148019 C6.55980177,30.4417139 7.82122496,29.4338111 8.65022375,28.6958565 C9.23920107,28.1710425 8.9847407,26.6227468 8.79065661,25.5834881 C8.64577344,24.8083728 5.8540278,24.9318118 4.98314641,25.7046944 C3.71252587,26.8320672 2.12034379,26.9029156 0.95410834,25.8834527 C-0.232746968,24.84598 -0.323385526,23.2100169 0.744299702,22.1011501 C1.7979416,21.0068697 3.8488545,20.7564196 4.73936689,21.9334557 C5.86821949,23.4258366 7.34904428,23.1824317 8.88965193,23.346405 C9.15237014,22.5897957 9.38349094,21.8812124 9.64344007,21.1818573 C10.1668491,19.7758539 9.16300151,18.718238 7.56261102,18.9225473 C6.78612619,19.0220724 5.90288268,19.1550372 5.21258605,18.9120788 C3.86433184,18.4376227 3.2502843,17.3464183 3.5205681,15.9999018 C3.78743997,14.6692616 4.71775807,13.8662138 6.19378638,13.8132759 C7.65023322,13.7615288 8.86255436,14.4201014 9.01707994,15.762897 C9.19222543,17.2827639 10.1308014,17.9097822 11.3891093,18.4788021 C12.6947886,17.5610473 13.9740132,16.6624931 15.3371018,15.7045512 C14.8016769,14.6133469 14.3610936,13.6066843 12.6916734,13.6251903 C11.0854975,13.6433985 9.93671725,12.2622515 10.0562336,10.7848539 C10.1750575,9.31102846 11.5329541,8.23798277 13.1505032,8.33974052 C14.752921,8.44070445 16.0953403,9.71314775 15.7598344,11.1807219 C15.419532,12.6696795 16.110521,13.5517619 17.2557903,14.6011419 C18.9055796,13.5281458 20.5509184,12.4576304 22.2385356,11.3601747 C21.6516351,10.1366506 21.0839204,9.3347935 19.5251159,9.3159899 C17.8560913,9.29624363 16.6891142,7.70076534 16.9793256,6.25442594 C17.2839758,4.73728775 18.8523733,3.72258774 20.4317484,4.02151046 C21.9768063,4.31398339 23.0146743,5.8539439 22.6712566,7.34592795 C22.4051265,8.49939753 22.5283514,8.74468781 23.9422728,9.87905611 C25.0985691,9.26791419 26.2778589,8.69105537 27.4023106,8.03248276 C28.2395673,7.54244798 28.0502796,5.66193882 27.1155112,4.92666336 C26.0807584,4.11265091 25.3595567,3.05121479 26.0659735,1.91158746 C26.5625816,1.11102033 27.5832415,0.388346765 28.5331906,0.0942861877 C29.6967064,-0.266356017 30.679588,0.453787278 31.2888391,1.46858648 C31.9203418,2.52119133 31.8341537,3.63367997 30.9279168,4.37743937 C29.8176073,5.28889316 29.753374,6.2918347 29.9810829,7.44927335 C31.2389953,7.89931951 32.473667,8.34098088 33.7828077,8.80913606 C34.5997906,7.63274495 35.5061264,6.57899894 34.7004176,4.90751247 C34.091216,3.64345391 35.2533472,2.12185046 36.6988166,1.80610867 C38.2634561,1.46427007 39.8593962,2.31127567 40.2480589,3.68964429 C40.6258925,5.02842112 39.7909599,6.72823708 38.3527595,6.89945408 C36.3041707,7.14335515 36.2887428,8.85101007 35.4360583,9.94911072 C35.3289041,10.0863919 35.5294659,10.5010634 35.6805301,10.7341487 C36.1792151,11.50207 36.7204255,12.2455318 37.2957057,13.0693181 C38.6384711,12.7019285 39.8929716,12.4651221 40.3583284,10.7845067 C40.7804182,9.25868608 42.7160179,8.72940685 44.2050511,9.3960169 C45.5650245,10.0049758 46.1955877,11.5530233 45.6003799,12.8213983 C44.8988091,14.3173018 43.3622562,14.8922257 41.7433721,14.2648602 C39.805745,13.5135595 37.9873869,14.558623 37.8105107,16.5181669 C37.7789133,16.8678444 37.6528699,17.2151405 37.6621167,17.5616428 C37.6803631,18.2616429 37.526876,19.4253825 37.8609973,19.5731322 C38.896739,20.0315135 40.0644084,20.5461566 41.2770263,19.5783912 C42.6829865,18.456476 44.4358257,18.7712751 45.4667709,20.149346 C46.4056436,21.4045238 46.0797306,22.941954 44.6857863,23.8349019 C43.280914,24.7346468 41.5146742,24.4852386 40.6739067,22.9993571 C39.89401,21.6212861 38.5670185,21.8010367 37.3680978,21.5984638 C37.1335651,21.5587728 36.6314682,22.0935096 36.5075016,22.4427406 C36.0892194,23.6177426 35.3773139,24.9031351 35.6046272,25.995034 C35.7258247,26.5746711 37.2142645,27.6158649 38.7435485,26.9045528 C40.2360925,26.2104568 41.9036831,27.0679308 42.4871717,28.5569381 C43.0101851,29.8919939 42.1699121,31.4612265 40.6688136,31.9538908 C39.1971861,32.4368309 37.4045411,31.7461086 37.0896551,30.2592347 C36.7317986,28.5720206 35.4446129,28.1028732 34.0750465,27.467619 C33.127916,28.687323 32.2208879,29.8552301 31.2572912,31.0959702 C32.1937409,32.1516015 32.9798682,33.1404032 34.7869521,32.859391 C36.3801231,32.6111239 37.7218996,33.8890247 37.8012145,35.348214 C37.8760791,36.7213236 36.6699884,37.9998198 35.1904987,38.1155686 C33.5719608,38.2419348 32.2105533,37.2383482 31.9939208,35.7588173 C31.7126595,33.8362357 31.6030824,33.6825323 29.7712249,32.6516086 C28.5538601,33.5272413 27.3017331,34.3842193 26.1048398,35.3045043 C25.3332009,35.8981326 25.9860158,38.7323168 27.0190379,39.2140165 C28.2859004,39.8037749 29.2821824,40.67653 28.9298641,42.008361 C28.7045287,42.8604767 27.9215167,43.9602642 27.128615,44.2020816 C26.2569919,44.4683088 24.9220887,44.113273 24.0903208,43.6000686 C23.0913191,42.9839654 22.7842953,41.64757 23.5350671,40.7626595 C24.6920063,39.398282 24.2239792,38.1644382 23.7325137,36.7406234 C22.5057538,36.9625456 21.2492259,37.1284043 20.0303776,37.4294108 C18.9564619,37.6943481 18.6566576,40.2983742 19.5914755,41.1923144 C20.4435172,42.006823 20.8981933,42.8869209 20.5029539,44.0387036 C20.0942646,45.2295323 19.16632,45.9037829 17.9107811,45.9919465 C16.6181067,46.0825907 15.6376481,45.4008981 15.1101843,44.309148 C14.5637819,43.1782527 14.9041337,42.1749142 15.8179856,41.2861339 C16.305248,40.8115786 16.9419923,40.2916267 17.071151,39.7066809 C17.5422933,37.5773092 16.2311252,36.071731 13.9040937,35.8553656 C13.0008731,35.7714688 11.5283062,37.5187651 11.7315877,38.4760619 C12.0393532,39.9259735 11.3953895,40.9919245 10.068398,41.5717105 C8.78848116,42.1302619 7.54530436,41.8714271 6.61627186,40.763999 C5.27518766,39.1654943 6.27151911,36.5798748 8.42474033,36.5631054 C10.2481913,36.5488663 11.0895521,35.6224788 11.9738835,34.5513183 M19.0692052,33.1015327 C21.3751072,33.0770943 23.0770485,31.341407 23.0281225,29.0635342 C22.9801959,26.8246914 21.1556063,25.0648718 18.9201426,25.1024222 C16.6526485,25.1404319 15.0068674,26.8787722 15.0293791,29.2118482 C15.0527951,31.5725259 16.6668313,33.1266344 19.0692052,33.1015327 M30.2083111,21.5444699 C30.2086668,20.4478065 29.0713704,19.5601813 27.6622655,19.5571613 C26.1373318,19.5543601 25.2065855,20.3074847 25.2083136,21.5425879 C25.2096858,22.7280576 26.2284598,23.5632043 27.6658232,23.5571205 C29.0364541,23.5516057 30.2075995,22.6244138 30.2083111,21.5444699 M20.1161279,19.3437387 C20.362631,19.3509238 20.6091342,19.3578237 20.855291,19.3650088 C21.2793271,18.7954485 22.0437696,18.2151676 22.0233383,17.6597494 C22.0056196,17.180915 21.099774,16.3725933 20.57589,16.3650661 C20.0307089,16.3574818 19.0699181,17.1043882 19.0262274,17.5787746 C18.9753223,18.1349912 19.7180637,18.7527942 20.1161279,19.3437387" id="形状"></path>
                            </g>
                            <ellipse id="椭圆形" fill="#FFFFFF" transform="translate(15.292923, 18.599026) scale(1, -1) rotate(15.000000) translate(-15.292923, -18.599026) " cx="15.292923" cy="18.599026" rx="1" ry="1"></ellipse>
                        </g>
                        <path d="M22.0274026,25.6437084 C16.949481,28.922401 14.4101216,32.7027027 14.4093244,36.9846136" id="路径-3" stroke="url(#linearGradient-5)" stroke-width="1.536" stroke-linecap="round" stroke-linejoin="round" transform="translate(18.218364, 31.314161) scale(1, -1) rotate(-49.000000) translate(-18.218364, -31.314161) "></path>
                    </g>
                </g>
            </g>
        </g>
    </g>
</svg>