<?xml version="1.0" encoding="UTF-8"?>
<svg width="32px" height="32px" viewBox="0 0 32 32" version="1.1" xmlns="http://www.w3.org/2000/svg" xmlns:xlink="http://www.w3.org/1999/xlink">
    <!-- Generator: Sketch 52.4 (67378) - http://www.bohemiancoding.com/sketch -->
    <title>EFO</title>
    <desc>Created with Sketch.</desc>
    <g id="EFO" stroke="none" stroke-width="1" fill="none" fill-rule="evenodd" opacity="0.693382626">
        <path d="M15.7949047,26.9024654 C15.5657485,26.7690465 15.4091965,26.5126805 15.4091965,26.2212108 C15.4091965,25.7690106 15.7453102,25.4172994 16.1534484,25.4424216 C16.5615865,25.4424216 16.8977002,25.7941329 16.8977002,26.2212108 C16.8977002,26.5061626 16.7480716,26.7575631 16.5272555,26.8933313 C22.2739845,26.6303461 26.8417813,21.8916748 26.864486,16.0702028 C26.864486,10.0795632 22.0046729,5.21216849 16.0233645,5.21216849 C12.3084112,5.21216849 9.01401869,7.08424337 7.07476635,9.91575663 L6.23364486,11.3666147 C5.55607476,12.7940718 5.18224299,14.3853354 5.18224299,16.0468019 C5.18224299,21.9609839 9.91879759,26.7804096 15.7949047,26.9024654 Z M18.5062445,9.84151584 C19.8747076,11.8010499 19.4425614,14.5644954 17.5459196,15.9964625 C15.6492777,17.4284297 13.0323922,16.9762296 11.6639291,14.9915733 C10.295466,13.006917 10.7276123,10.2685938 12.6242541,8.83662658 C14.5208959,7.40465938 17.1617896,7.85685955 18.5062445,9.84151584 Z M18.1701308,20.4682198 C19.1544639,19.7396751 20.522927,19.9657752 21.2671788,20.9957867 C21.9874225,22.0509204 21.7473413,23.4828876 20.7630082,24.2365545 C19.754667,24.9902215 18.3862039,24.7389991 17.6659602,23.7089876 C16.9457164,22.653854 17.1857977,21.2218868 18.1701308,20.4682198 Z M9.38315731,19.4884528 C10.6075716,18.5589302 12.3121485,18.860397 13.1764409,20.1416308 C14.0407334,21.3977423 13.776644,23.1814208 12.5522297,24.1109433 C11.3278154,25.0153437 9.64724666,24.7389991 8.75894607,23.4577653 C7.8946536,22.1765316 8.15874298,20.4179753 9.38315731,19.4884528 Z M22.2736292,15.7166545 C23.0338934,15.1297448 24.1362765,15.3253814 24.6684615,16.1079277 C25.2386597,16.8904741 25.0485936,17.986039 24.2883294,18.5729488 C23.5280652,19.1598585 22.4636953,18.9642219 21.8934971,18.1816756 C21.3232989,17.3991292 21.513365,16.3035643 22.2736292,15.7166545 Z M6.38214177,15.8708514 C6.79027988,15.5693846 7.34246674,15.6698735 7.63056422,16.0969515 C7.91866173,16.5240294 7.82262922,17.1018408 7.41449112,17.4033075 C7.00635298,17.7047743 6.45416611,17.6042854 6.16606864,17.1772074 C5.87797116,16.7501295 5.97400366,16.1723182 6.38214177,15.8708514 Z M23.3545627,10.9457682 C22.8189733,11.3452845 22.0399342,11.1954658 21.6017247,10.6461309 C21.2122051,10.0468565 21.309585,9.24782384 21.8938643,8.84830749 C22.4781436,8.4487912 23.2571827,8.59860984 23.6467023,9.14794475 C24.0362219,9.74721921 23.8901521,10.5462518 23.3545627,10.9457682 Z M29.7616823,14.8299532 C30.4158878,14.8299532 30.9766355,15.3681747 31,16.1170047 C31,16.7956318 30.4626168,17.3338533 29.7850467,17.3338533 L28.5,17.3338533 C28.3598131,18.5975039 28.0560748,19.8143525 27.588785,20.9375975 L29.0607477,21.7800312 C29.0607477,21.8034321 29.0607477,21.8034321 29.0841121,21.8034321 C29.6682243,22.1310452 29.8551402,22.8798752 29.5280374,23.4648986 C29.2009346,24.049922 28.453271,24.2371295 27.8691589,23.9095164 C27.8691589,23.9095164 27.8691589,23.8861154 27.8457944,23.8861154 L26.4439252,23.0670827 C25.7429906,24.1435258 24.8551402,25.1029641 23.8504673,25.8985959 L24.7616822,27.4898596 C25.088785,28.074883 24.9018692,28.800312 24.317757,29.1513261 C23.7336449,29.4789392 23.0093458,29.2917317 22.6588785,28.7067083 L21.817757,27.2324493 C20.3925234,27.9578783 18.8037383,28.449298 17.1214953,28.5897036 L17.1214953,29.8767551 L17.0981309,29.8767551 C17.0514019,30.5085803 16.5373832,31 15.9065421,31 C15.2757009,31 14.7616823,30.5085803 14.7149533,29.8767551 L14.6915888,29.8767551 L14.6915888,28.5663026 C13.0794392,28.3790951 11.5373832,27.9110764 10.1588785,27.1622465 L9.29439251,28.6833073 C8.96728972,29.2683307 8.21962618,29.4555382 7.63551402,29.1279251 C7.05140187,28.800312 6.864486,28.0514821 7.19158879,27.4664587 L8.14953272,25.8049922 C7.14485982,24.9859594 6.28037384,24.0265211 5.57943925,22.950078 L4.17757009,23.7691108 C3.59345796,24.0967238 2.86915888,23.9095164 2.5186916,23.324493 C2.1915888,22.7394696 2.37850467,22.0140406 2.96261683,21.6630265 L4.43457945,20.7971919 C3.99065422,19.6973479 3.68691591,18.5039001 3.57009347,17.2636505 L2.35514018,17.2636505 C2.30841121,17.2870515 2.26168223,17.2870515 2.21495326,17.2870515 C1.53738318,17.2870515 1,16.74883 1,16.0702028 C1.00000003,15.3915757 1.53738318,14.8533541 2.1915888,14.8533541 L2.1915888,14.8299532 L3.57009347,14.8299532 C3.71028037,13.4726989 4.06074765,12.1622465 4.59813083,10.9687988 L3.24299065,10.1965679 C2.65887849,9.86895476 2.47196262,9.12012481 2.79906542,8.53510141 C3.12616824,7.950078 3.87383178,7.76287053 4.45794394,8.09048362 L5.78971963,8.8627145 C6.60747663,7.69266771 7.61214951,6.66302652 8.78037382,5.84399377 L7.96261682,4.43993761 C7.63551402,3.8549142 7.82242989,3.12948517 8.40654205,2.77847113 C8.99065421,2.45085804 9.71495329,2.63806551 10.0654206,3.22308892 L10.8831776,4.62714508 C12.0514019,4.08892354 13.3364486,3.73790951 14.6682243,3.59750389 L14.6682243,2.21684866 C14.6682243,1.53822153 15.2056075,1 15.8831776,1 C16.5607477,1 17.0981309,1.5382215 17.0981309,2.21684866 L17.0981309,3.59750389 C18.546729,3.71450857 19.9018692,4.08892354 21.1635514,4.65054602 L21.9579439,3.24648985 C21.9813084,3.24648985 21.9813084,3.22308892 21.9813084,3.22308892 C22.3084112,2.63806551 23.0560748,2.45085804 23.6401869,2.77847113 C24.2242991,3.1294852 24.411215,3.8549142 24.0841122,4.43993761 L23.2663551,5.84399377 C24.4579439,6.7098284 25.4859813,7.76287053 26.3271028,8.95631825 L27.8457944,8.06708269 C27.8457944,8.06708269 27.8457944,8.04368175 27.8691589,8.04368175 C28.453271,7.71606865 29.1775701,7.90327612 29.5280374,8.48829953 C29.8551402,9.07332291 29.6682243,9.79875194 29.0841121,10.149766 C29.0841121,10.149766 29.0841121,10.1731669 29.0607477,10.1731669 L27.4953271,11.0858034 C28.0093458,12.2324493 28.3364486,13.5195008 28.4766355,14.8299532 L29.7616823,14.8299532 Z" fill="#0A897C" fill-rule="nonzero"></path>
    </g>
</svg>