<?xml version="1.0" encoding="UTF-8"?>
<svg width="20px" height="20px" viewBox="0 0 20 20" version="1.1" xmlns="http://www.w3.org/2000/svg" xmlns:xlink="http://www.w3.org/1999/xlink">
    <!-- Generator: Sketch 52.4 (67378) - http://www.bohemiancoding.com/sketch -->
    <title>Home2</title>
    <desc>Created with Sketch.</desc>
    <g id="Home2" stroke="none" stroke-width="1" fill="none" fill-rule="evenodd">
        <path d="M17.3665795,20 L12.4834206,20 C11.8114612,20 11.2646527,19.4560527 11.2646527,18.7876094 L11.2646527,14.8329235 C11.2646527,14.7391229 11.1849026,14.6597901 11.0905398,14.6597901 L9.25251976,14.6597901 C9.15820282,14.6597901 9.0784068,14.7391229 9.0784068,14.8329235 L9.0784068,18.7875637 C9.0784068,19.456007 8.53159832,19.9999543 7.85963896,19.9999543 L2.63167747,19.9999543 C1.95974108,19.9999543 1.41290964,19.456007 1.41290964,18.7875637 L1.41290962,10.5196286 C1.41290962,10.4257824 1.33315953,10.3464267 1.23879665,10.3464267 L0.883149411,10.3464267 C0.310171138,10.3464267 0.111726454,10.0220102 0.0530684569,9.88265788 C-0.00558956231,9.74312268 -0.0987576807,9.37489144 0.303186402,8.96878801 L9.31048848,0.359454576 C9.54020363,0.127718707 9.84707259,0 10.1744132,0 C10.4991806,0 10.8042344,0.125821678 11.0332373,0.354334848 L13.2212065,2.53775792 L13.2212065,2.08397711 C13.2212065,1.41555663 13.768015,0.871586482 14.4400203,0.871586482 L16.4125195,0.871586482 C17.0844788,0.871586482 17.6312873,1.41555665 17.6312873,2.08397711 L17.6312873,6.50928864 C17.6312873,6.75693221 17.7954057,7.15892157 17.9689442,7.33671754 L19.7009525,8.96787376 C20.099565,9.37596565 20.0049494,9.74389975 19.9457859,9.88322926 C19.8866454,10.0224445 19.6871898,10.3463581 19.1153833,10.3463581 L18.7595063,10.3463581 C18.6651434,10.3463581 18.5853933,10.4257138 18.5853933,10.51956 L18.5853933,18.7875408 C18.5853474,19.4560527 18.0385389,20 17.3665795,20 Z" stroke="#757575" stroke-width="2" fill-rule="nonzero"></path>
    </g>
</svg>