<?xml version="1.0" encoding="UTF-8"?>
<svg width="32px" height="32px" viewBox="0 0 32 32" version="1.1" xmlns="http://www.w3.org/2000/svg" xmlns:xlink="http://www.w3.org/1999/xlink">
    <!-- Generator: Sketch 52.4 (67378) - http://www.bohemiancoding.com/sketch -->
    <title>Microbe</title>
    <desc>Created with Sketch.</desc>
    <g id="Microbe" stroke="none" stroke-width="1" fill="none" fill-rule="evenodd" opacity="0.693382626">
        <path d="M14.4734922,13.7945205 C14.4995721,13.3013698 14.5256521,12.5616438 15.2950107,11.8688845 C16.0774092,11.1643836 16.8989276,11.1409002 17.4466067,11.1291585 C17.8899658,11.1174168 18.0334055,11.1056752 18.2420451,10.9178082 C18.4506847,10.7299413 18.4637247,10.6007828 18.4767647,10.2015656 C18.4898047,9.70841485 18.5158846,8.96868885 19.2982832,8.26418785 C19.6894824,7.91193738 20.3154013,7.91193738 20.7066006,8.26418785 C21.0977998,8.61643832 21.0977998,9.18003914 20.7066006,9.53228961 C20.497961,9.72015653 20.484921,9.84931508 20.471881,10.2485323 C20.458841,10.741683 20.4327611,11.4814091 19.6503625,12.18591 C18.8679639,12.8904109 18.0464455,12.9138943 17.4987665,12.925636 C17.0554074,12.9373777 16.9119676,12.9491194 16.703328,13.1369863 C16.4946884,13.3248532 16.4816484,13.4540118 16.4686085,13.853229 C16.4555685,14.3463797 16.4294885,15.0861057 15.64709,15.7906067 C14.8646914,16.4951076 14.043173,16.518591 13.495494,16.5303327 C13.0521349,16.5420744 12.9086951,16.553816 12.7000555,16.741683 C12.5174958,16.9060665 12.2566963,17 11.9958967,17 C11.5916575,17 11.2265382,16.7886497 11.0700585,16.4481409 C10.9266188,16.1076321 11.0048586,15.7201566 11.291738,15.4618395 C12.0741366,14.7573386 12.895655,14.7338552 13.443334,14.7221135 C13.8866932,14.7103718 14.030133,14.6986301 14.2387726,14.5107632 C14.4474122,14.3228963 14.4604522,14.1937378 14.4734922,13.7945205 Z M29.051257,7.96550371 C29.5827779,7.97177577 30.0066491,8.37318696 29.999921,8.86867894 C29.999921,9.35789889 29.5693217,9.75931009 29.0445288,9.76558214 L28.5197359,9.76558214 C28.344805,11.1454332 27.7729153,12.4312035 26.8511637,13.5225402 L27.22121,13.8612309 C27.5979844,14.2061937 27.5979844,14.7769502 27.22121,15.128185 C27.0395509,15.2975304 26.7973388,15.3916111 26.5416705,15.3916111 C26.2860022,15.3916112 26.0437901,15.2975304 25.862131,15.128185 L25.5391815,14.8271266 L22.9017609,17.2857703 L23.2247103,17.5868287 C23.6014847,17.9317915 23.6014847,18.502548 23.2247103,18.8537828 C23.0430513,19.0231282 22.8008391,19.1172089 22.5451708,19.1172089 C22.2895025,19.1172089 22.0472904,19.0231282 21.8656313,18.8537828 L21.5426819,18.5527244 L18.9052612,21.0113681 L19.2282107,21.3124265 C19.4098698,21.4817719 19.5107915,21.7075657 19.5107915,21.9459036 C19.5107915,22.1842414 19.4098698,22.4100353 19.2282107,22.5793806 C19.0465516,22.748726 18.8043395,22.8428067 18.5486712,22.8428067 C18.2930029,22.8428067 18.0507908,22.748726 17.8691317,22.5793806 L17.5058135,22.2406899 C16.3351217,23.0999608 14.9558584,23.6330851 13.4756733,23.7961584 L13.4756733,24.2791062 C13.4756733,24.6617013 13.220005,24.9878479 12.8566868,25.119561 C13.8389915,25.1948255 14.7472869,25.5836927 15.4537388,26.2422579 C16.2409281,26.9760878 16.6715274,27.9482556 16.6715274,28.9894159 C16.6715274,30.0305762 16.2409281,31.002744 15.4537388,31.7365739 C15.2720797,31.9059193 15.0298676,32 14.7741993,32 C14.518531,32 14.2763189,31.9059193 14.0946598,31.7365739 C13.7246135,31.3853391 13.7246135,30.8208546 14.0946598,30.4696197 C14.9693146,29.6542532 14.9693146,28.3308506 14.0946598,27.5154841 C13.6707886,27.126617 13.1123552,26.9070953 12.5068249,26.9070953 C11.9012947,26.9070952 11.3428612,27.1203449 10.9189901,27.5154841 L10.4143815,27.9858879 C9.62719217,28.7197178 8.58433454,29.121129 7.46746763,29.121129 C6.35732884,29.121129 5.30774309,28.7197178 4.52055375,27.9858879 C3.73336441,27.252058 3.30276514,26.2736182 3.30276514,25.2387299 C3.30276514,24.2038416 3.73336441,23.2254018 4.52055375,22.4915719 L6.14875732,20.9737358 C5.2270057,19.8886711 4.65511603,18.5966288 4.48018506,17.2167777 L3.96212031,17.2167777 C3.43059927,17.2167777 2.99999997,16.8153665 3,16.3198746 C3.00000003,15.8243826 3.43059931,15.4229714 3.96212031,15.4229714 L4.48691317,15.4229714 C4.66184415,14.0431203 5.23373385,12.75735 6.15548543,11.6660133 L5.79216729,11.3210506 C5.41539291,10.9760878 5.41539291,10.4053312 5.79216729,10.0540964 C5.97382634,9.88475106 6.21603844,9.79067031 6.47170677,9.79067031 C6.7273751,9.79067031 6.9695872,9.88475106 7.15124629,10.0540964 L7.47419575,10.3551548 L10.1116164,7.89651118 L9.7819388,7.58918073 C9.41862065,7.23794591 9.42534877,6.6734614 9.79539503,6.32849864 C9.97705409,6.15915327 10.2192662,6.06507252 10.4749345,6.06507252 C10.7306028,6.06507252 10.9660868,6.15288122 11.1477459,6.31595454 L11.154474,6.32222659 L11.4774235,6.62328498 L14.1148441,4.16464133 L13.7918947,3.8635829 C13.6102356,3.69423756 13.5093139,3.46844376 13.5093139,3.23010585 C13.5093139,2.99176794 13.6102356,2.76597413 13.7918947,2.59662876 C13.9735538,2.42728343 14.2157659,2.33320271 14.4714342,2.33320268 C14.7271025,2.33320265 14.9693146,2.42728339 15.1509737,2.59662876 L15.5142918,2.93531947 C16.6849836,2.07604861 18.064247,1.54292436 19.544432,1.37985104 L19.544432,0.89690317 C19.5444321,0.401411196 19.9750313,3.55271368e-14 20.5065523,3.55271368e-14 C21.0380733,3.55271368e-14 21.4686726,0.401411196 21.4686726,0.89690317 L21.4686726,1.37985104 C22.9488577,1.54292433 24.328121,2.07604861 25.5055409,2.93531947 L25.8688591,2.59662876 C26.0505181,2.42728343 26.2927302,2.33320271 26.5483986,2.33320268 C26.8040669,2.33320265 27.046279,2.42728339 27.2279381,2.59662876 C27.6047125,2.94786358 27.6047125,3.51862014 27.2279381,3.86985495 L26.8578918,4.20854566 C27.7796434,5.29361033 28.3515331,6.58565267 28.5264641,7.96550371 L29.051257,7.96550371 Z M9.75426981,26.4546094 C10.4715978,25.8634764 11.3938768,25.5087966 12.3913043,25.4412386 C12.0223928,25.323012 11.7627883,25.0302604 11.7627883,24.6868403 L11.7627883,24.2533427 C10.2598153,24.1069669 8.85931767,23.6284307 7.67060264,22.8571429 L6.01733228,24.2195637 C5.58693543,24.5742435 5.34782609,25.0471499 5.34782609,25.5482055 C5.34782609,26.0492611 5.58693543,26.5221675 6.01733228,26.8768473 C6.44772909,27.2315271 7.02159154,27.4285714 7.62961245,27.4285714 C8.23763336,27.4285714 8.81149579,27.2315271 9.24189263,26.8768473 L9.75426981,26.4546094 Z M8.02323816,13.39119 C6.91549802,15.0403507 6.81801024,17.1690542 7.77037708,18.9125613 C9.18006995,21.4932995 12.4149535,22.4426193 14.9956885,21.0329207 C15.2791177,20.8781014 15.5573425,20.7188525 15.8303631,20.555174 C20.5251206,16.6655483 20.2936927,16.6915177 24.546798,12.3897487 C25.9142962,10.8253293 26.2253812,8.59951113 25.3391984,6.72011251 C24.1079402,4.10888506 20.9929901,2.99019896 18.3817621,4.22145598 C17.5133738,4.63092253 16.6629074,5.09587938 15.8303631,5.61632653 C11.2592411,9.58516778 12.4763753,8.16507733 8.02323816,13.39119 Z" id="合并形状" fill="#0A897C" fill-rule="nonzero"></path>
    </g>
</svg>