<?xml version="1.0" encoding="UTF-8"?>
<svg width="20px" height="20px" viewBox="0 0 20 20" version="1.1" xmlns="http://www.w3.org/2000/svg" xmlns:xlink="http://www.w3.org/1999/xlink">
    <!-- Generator: Sketch 52.4 (67378) - http://www.bohemiancoding.com/sketch -->
    <title>sousuo</title>
    <desc>Created with Sketch.</desc>
    <g id="Page-1" stroke="none" stroke-width="1" fill="none" fill-rule="evenodd" opacity="0.54">
        <g id="web1" transform="translate(-237.000000, -313.000000)" fill="#000000" fill-rule="nonzero">
            <g id="sousuo" transform="translate(237.000000, 313.000000)">
                <path d="M13.9999334,4.18038126 C11.2872372,1.46868545 6.88951855,1.46894585 4.17714365,4.1809629 C1.46476875,6.89297995 1.46476875,11.289858 4.17714365,14.0018751 C6.88951855,16.7138921 11.2872372,16.7141525 13.9999334,14.0024567 C15.3052782,12.7013538 16.0389499,10.9342816 16.0389499,9.09141899 C16.0389499,7.24855637 15.3052782,5.48148418 13.9999334,4.18038126 Z M2.65998735,15.5121609 C-0.887911421,11.9622905 -0.886479163,6.20918213 2.66318667,2.66107806 C6.21285251,-0.887026018 11.967061,-0.887026018 15.5167268,2.66107806 C19.0663927,6.20918213 19.0678249,11.9622905 15.5199262,15.5121609 C11.9667877,19.0579113 6.21312581,19.0579113 2.65998735,15.5121609 Z M19.6399065,19.635353 C19.4065833,19.8688223 19.0900145,20 18.7599107,20 C18.4298069,20 18.1132382,19.8688223 17.8799149,19.635353 L16.1199233,17.8816966 C15.6661066,17.39083 15.6815106,16.629113 16.1548016,16.1569879 C16.6280926,15.6848628 17.3899884,15.671195 17.8799149,16.1260406 L19.6399065,17.8816966 C20.1200312,18.3676983 20.1200312,19.1493513 19.6399065,19.635353 Z" id="形状"></path>
            </g>
        </g>
    </g>
</svg>