<?xml version="1.0" encoding="UTF-8"?>
<svg width="22px" height="22px" viewBox="0 0 22 22" version="1.1" xmlns="http://www.w3.org/2000/svg" xmlns:xlink="http://www.w3.org/1999/xlink">
    <!-- Generator: Sketch 52.4 (67378) - http://www.bohemiancoding.com/sketch -->
    <title>Tool</title>
    <desc>Created with Sketch.</desc>
    <g id="Tool" stroke="none" stroke-width="1" fill="none" fill-rule="evenodd">
        <path d="M11,16 C8.23857625,16 6,13.7614237 6,11 C6,8.23857625 8.23857625,6 11,6 C13.7614237,6 16,8.23857625 16,11 C16,13.7614237 13.7614237,16 11,16 Z M11,14 C12.6568542,14 14,12.6568542 14,11 C14,9.34314575 12.6568542,8 11,8 C9.34314575,8 8,9.34314575 8,11 C8,12.6568542 9.34314575,14 11,14 Z" id="椭圆形" fill="#757575" fill-rule="nonzero"></path>
        <path d="M16.7005812,1.5906621 C17.1726921,1.8772449 17.3230924,2.4922877 17.0365096,2.96439865 C16.7499268,3.43650959 16.134884,3.58690987 15.6627731,3.30032708 C14.2684402,2.45393322 12.6687739,2 11,2 C7.5924593,2 4.52555243,3.90988049 2.9930035,6.88590262 C2.74015321,7.37690687 2.13713996,7.56996881 1.64613571,7.31711852 C1.15513146,7.06426824 0.962069518,6.46125499 1.2149198,5.97025073 C3.08711943,2.33466859 6.83615567,0 11,0 C13.0373619,0 14.9955599,0.555672859 16.7005812,1.5906621 Z M0,11 C0,10.4477153 0.44771525,10 1,10 C1.55228475,10 2,10.4477153 2,11 C2,15.9705627 6.02943725,20 11,20 C11.5522847,20 12,20.4477153 12,21 C12,21.5522847 11.5522847,22 11,22 C4.92486775,22 0,17.0751322 0,11 Z M16.3491329,20.6138779 C15.8667439,20.8828004 15.2576856,20.7097515 14.9887632,20.2273625 C14.7198407,19.7449734 14.8928896,19.1359152 15.3752786,18.8669927 C18.207665,17.2879929 20,14.3016749 20,11 C20,9.34164496 19.5517344,7.75148278 18.7153077,6.36308117 C18.4303118,5.89001061 18.5827764,5.27547629 19.0558469,4.99048033 C19.5289175,4.70548438 20.1434518,4.85794898 20.4284478,5.33101954 C21.4512672,7.02881821 22,8.97537446 22,11 C22,15.0342976 19.8088066,18.6851776 16.3491329,20.6138779 Z" id="形状" fill="#757575" fill-rule="nonzero"></path>
    </g>
</svg>