<?xml version="1.0" encoding="UTF-8"?>
<svg width="20px" height="20px" viewBox="0 0 20 20" version="1.1" xmlns="http://www.w3.org/2000/svg" xmlns:xlink="http://www.w3.org/1999/xlink">
    <!-- Generator: Sketch 52.4 (67378) - http://www.bohemiancoding.com/sketch -->
    <title>Browser2</title>
    <desc>Created with Sketch.</desc>
    <g id="Browser2" stroke="none" stroke-width="1" fill="none" fill-rule="evenodd">
        <g transform="translate(1.000000, 2.000000)" fill="#0A897C" fill-rule="nonzero">
            <g>
                <rect id="矩形" x="0" y="0.681818182" width="4" height="2" rx="1"></rect>
                <rect id="矩形-copy-6" x="0" y="7.5" width="3.73333333" height="2" rx="1"></rect>
                <rect id="矩形-copy-2" x="0" y="13.6363636" width="14.6666667" height="2" rx="1"></rect>
            </g>
        </g>
        <path d="M13.975701,9.97614468 C15.3419139,8.60853767 15.3413624,6.39200814 13.9744691,5.0250817 C12.6077267,3.6583061 10.3922733,3.6583061 9.02553088,5.0250817 C7.65879301,6.39185274 7.6580862,8.60803372 9.02383307,9.97567823 C10.3924649,11.3415958 12.6081942,11.3414407 13.975701,9.97614468 Z M7.61029687,11.3905691 C5.46278954,9.24087161 5.46365606,5.75858152 7.61130015,3.6108853 C9.75909509,1.46303823 13.2409049,1.46303823 15.3886998,3.6108853 C17.5363439,5.75858152 17.5372105,9.24087161 15.3897031,11.3905691 C13.2403222,13.536477 9.75967777,13.536477 7.61029687,11.3905691 Z" id="形状" fill="#0A897C" fill-rule="nonzero"></path>
        <path d="M18.8504651,15.841654 C18.6171418,16.0751233 18.3005731,16.206301 17.9704693,16.206301 C17.6403655,16.206301 17.3237968,16.0751233 17.0904735,15.841654 L15.3304819,14.0879976 C14.8766652,13.5971311 14.8920692,12.835414 15.3653602,12.363289 C15.8386512,11.8911639 16.6005469,11.877496 17.0904735,12.3323416 L18.8504651,14.0879976 C19.3305897,14.5739993 19.3305897,15.3556523 18.8504651,15.841654 Z" id="路径" fill="#0A897C"></path>
    </g>
</svg>