<?xml version="1.0" encoding="UTF-8"?>
<svg width="115px" height="115px" viewBox="0 0 115 115" version="1.1" xmlns="http://www.w3.org/2000/svg" xmlns:xlink="http://www.w3.org/1999/xlink">
    <!-- Generator: Sketch 52.4 (67378) - http://www.bohemiancoding.com/sketch -->
    <title>数据</title>
    <desc>Created with Sketch.</desc>
    <defs>
        <circle id="path-1" cx="57.5" cy="57.5" r="57.5"></circle>
        <circle id="path-3" cx="57.5" cy="57.5" r="44.7222222"></circle>
        <linearGradient x1="50%" y1="0%" x2="50%" y2="100%" id="linearGradient-5">
            <stop stop-color="#FFFFFF" offset="0%"></stop>
            <stop stop-color="#FFFFFF" stop-opacity="0" offset="100%"></stop>
        </linearGradient>
    </defs>
    <g id="Page-1" stroke="none" stroke-width="1" fill="none" fill-rule="evenodd">
        <g id="web3" transform="translate(-262.000000, -750.000000)">
            <g id="数据" transform="translate(262.000000, 750.000000)">
                <g id="矩形-+-矩形-copy-4-+-矩形-copy-5-+-矩形-copy-6-+-矩形-copy-+-矩形-+-椭圆形-+-椭圆形-copy-6-+-椭圆形-copy-9-+-椭圆形-copy-8-+-椭圆形-copy-+-椭圆形-copy-10-+-椭圆形-copy-7-+-椭圆形-copy-11-Mask-2-Copy">
                    <g id="矩形-+-矩形-copy-4-+-矩形-copy-5-+-矩形-copy-6-+-矩形-copy-+-矩形-+-椭圆形-+-椭圆形-copy-6-+-椭圆形-copy-9-+-椭圆形-copy-8-+-椭圆形-copy-+-椭圆形-copy-10-+-椭圆形-copy-7-+-椭圆形-copy-11-Mask">
                        <mask id="mask-2" fill="white">
                            <use xlink:href="#path-1"></use>
                        </mask>
                        <use id="Mask" fill="#0A897C" opacity="0.044678" xlink:href="#path-1"></use>
                        <mask id="mask-4" fill="white">
                            <use xlink:href="#path-3"></use>
                        </mask>
                        <use id="Mask" fill="#0A897C" opacity="0.104678199" xlink:href="#path-3"></use>
                        <circle id="椭圆形" fill="#0A897C" opacity="0.46937779" mask="url(#mask-4)" cx="77.8645833" cy="31.5451389" r="1.19791667"></circle>
                        <circle id="椭圆形-copy-3" fill="#0A897C" opacity="0.46937779" mask="url(#mask-4)" cx="79.8611111" cy="69.4791667" r="1"></circle>
                        <circle id="椭圆形-copy-2" fill="#0A897C" opacity="0.46937779" mask="url(#mask-4)" cx="25.9548611" cy="47.5173611" r="1.19791667"></circle>
                        <circle id="椭圆形-copy" fill="#0A897C" opacity="0.46937779" mask="url(#mask-4)" cx="58.6979167" cy="85.0520833" r="1.99652778"></circle>
                        <circle id="椭圆形-copy-4" fill="#0A897C" opacity="0.46937779" mask="url(#mask-4)" cx="25.9548611" cy="73.0729167" r="1.19791667"></circle>
                    </g>
                </g>
                <g id="shuju" transform="translate(35.138889, 30.347222)" fill="#0A897C" fill-rule="nonzero">
                    <path d="M50.9070019,22.2948952 C50.3029045,22.2948952 49.7040601,22.4316271 49.157746,22.6945732 L28.9520006,5.8134364 C29.4510376,4.86157165 29.5508451,3.76245714 29.2225312,2.73696754 C28.9137758,1.74900776 28.225543,0.924357978 27.3093118,0.444522353 C26.3930806,-0.0353132713 25.3239456,-0.131007279 24.3372217,0.178502436 C24.3319686,0.186390797 24.3188361,0.186390797 24.3109566,0.186390797 C22.5225063,0.783217045 21.4026949,2.55998501 21.6345423,4.43296959 L8.93799057,8.58488782 C7.99005209,7.09228691 6.15251421,6.43219452 4.4729227,6.9809169 C2.41368686,7.67134729 1.29204689,9.89136003 1.95672566,11.9611152 C2.36399909,13.2480921 3.40047558,14.2371244 4.70405562,14.5826874 L3.55889705,39.5888573 C2.46190884,39.7529868 1.47520299,40.3472621 0.816420272,41.240602 C0.157637556,42.133942 -0.119098553,43.2529526 0.0472524902,44.3508103 C0.210544663,45.4500405 0.804269916,46.438955 1.69727116,47.0990972 C2.5902724,47.7592394 3.70906063,48.0362833 4.80648955,47.8690285 C6.78470731,47.5672411 8.2740334,45.9077616 8.3627848,43.9064315 L27.4312511,39.9096514 C27.9985773,41.003507 29.1279769,41.6976846 30.3598102,41.7108319 C31.3785085,41.704569 32.3390603,41.234786 32.9701371,40.4341832 C33.6012138,39.6335804 33.8342983,38.5890809 33.6035507,37.5957261 L47.7289242,29.1761935 C48.5097001,30.1334553 49.6777931,30.690177 50.9122549,30.6933922 C52.4108188,30.6924528 53.7950483,29.8912125 54.5435176,28.5914908 C55.2919869,27.291769 55.2909857,25.6910245 54.5408911,24.3922422 C53.7907965,23.0934599 52.4055658,22.2939557 50.9070019,22.2948952 Z M24.8651503,24.8270657 C24.7706651,22.7287232 23.5038685,20.8624982 21.5898917,20.0020056 L25.2144762,7.89859865 C26.2335622,7.97222356 27.2395158,7.63565262 28.0117099,6.97039904 L47.918033,23.5859603 C47.3927309,24.138147 47.0276459,24.8270657 46.8674288,25.5633146 L24.8651503,24.8270657 Z M6.26945589,40.0700485 C5.88618364,39.8446531 5.46810813,39.6846996 5.03236944,39.5967456 L6.1696485,14.6773479 C6.76586638,14.603723 7.33581918,14.3854778 7.83222967,14.0410185 L14.9579527,21.8058155 C13.4073372,23.9293216 13.5417463,26.846978 15.2810135,28.8185868 L6.27208243,40.0700485 L6.26945589,40.0700485 Z M23.7961605,7.52521523 L20.171576,19.6102159 C18.6803922,19.3710141 17.1582765,19.7826001 15.9901713,20.740884 L8.87232783,12.9971226 C9.47117224,12.1162534 9.69705214,11.0276567 9.48693127,9.97850192 L22.0679166,5.86339617 C22.4513871,6.58386839 23.0554845,7.15972022 23.793534,7.52521523 L23.7961605,7.52521523 Z M8.15791695,42.4128979 C7.996352,41.9034525 7.73768593,41.430187 7.39622889,41.0192838 L16.3946539,29.7914872 C18.1194946,30.9283318 20.3407751,30.9814004 22.1178203,29.9282192 L27.6492514,36.3493618 C27.2395158,36.9278432 27.0215154,37.6115029 27.0215154,38.3135689 C27.0215154,38.3661581 27.0215154,38.4082294 27.0372744,38.4529303 L8.15791695,42.4128979 Z M32.9679352,36.2178888 C32.3436661,35.4033362 31.3774603,34.9245466 30.3519307,34.9215648 C29.7927584,34.9265125 29.2440668,35.0740202 28.7576388,35.3501668 L23.289244,29.0105374 C24.0115344,28.2664001 24.5237039,27.3250532 24.7417043,26.3100814 L46.8096455,27.0542188 C46.8464167,27.3250532 46.9120795,27.5932582 46.9987543,27.8562043 L32.9679352,36.2178888 Z" id="形状"></path>
                </g>
                <circle id="椭圆形" fill="#0A897C" cx="54.7048611" cy="54.7048611" r="9.98263889"></circle>
                <path d="M48.2826803,55.4924003 C48.1055293,51.6493189 49.5018961,49.3173651 52.4717806,48.4965387" id="路径-4" stroke="url(#linearGradient-5)" stroke-width="1.6" stroke-linecap="round"></path>
                <circle id="椭圆形" fill="#FFFFFF" cx="55.9027778" cy="47.9166667" r="1"></circle>
            </g>
        </g>
    </g>
</svg>