<?xml version="1.0" encoding="UTF-8"?>
<svg width="15px" height="9px" viewBox="0 0 15 9" version="1.1" xmlns="http://www.w3.org/2000/svg" xmlns:xlink="http://www.w3.org/1999/xlink">
    <!-- Generator: Sketch 52.4 (67378) - http://www.bohemiancoding.com/sketch -->
    <title>向下</title>
    <desc>Created with Sketch.</desc>
    <g id="Page-1" stroke="none" stroke-width="1" fill="none" fill-rule="evenodd" opacity="0.8">
        <g id="web1" transform="translate(-484.000000, -318.000000)">
            <g id="向下" transform="translate(491.000000, 322.000000) rotate(90.000000) translate(-491.000000, -322.000000) translate(479.000000, 310.000000)">
                <rect id="矩形" x="0" y="0" width="23.04" height="23.04"></rect>
                <g id="分组-2" transform="translate(8.400000, 3.560000)" fill="#0A897C">
                    <path d="M8.1415204,7.62217587 C8.14810065,7.88638338 8.05057355,8.15270182 7.84893912,8.35433626 L1.79610507,14.4071703 C1.40558078,14.7976946 0.772415801,14.7976946 0.381891509,14.4071703 C-0.00863278268,14.016646 -0.00863278268,13.383481 0.381891509,12.9929567 L5.75267239,7.62217587 L0.381891509,2.25139499 C-0.00863278268,1.86087069 -0.00863278268,1.22770572 0.381891509,0.837181424 C0.772415801,0.446657133 1.40558078,0.446657133 1.79610507,0.837181424 L7.84893912,6.89001547 C8.05057355,7.09164991 8.14810065,7.35796835 8.1415204,7.62217587 Z" id="合并形状"></path>
                </g>
            </g>
        </g>
    </g>
</svg>