<?xml version="1.0" encoding="UTF-8"?>
<svg width="115px" height="115px" viewBox="0 0 115 115" version="1.1" xmlns="http://www.w3.org/2000/svg" xmlns:xlink="http://www.w3.org/1999/xlink">
    <!-- Generator: Sketch 52.4 (67378) - http://www.bohemiancoding.com/sketch -->
    <title>基因</title>
    <desc>Created with Sketch.</desc>
    <defs>
        <circle id="path-1" cx="57.5" cy="57.5" r="57.5"></circle>
        <circle id="path-3" cx="57.5" cy="57.5" r="44.7222222"></circle>
        <linearGradient x1="50%" y1="0%" x2="50%" y2="100%" id="linearGradient-5">
            <stop stop-color="#FFFFFF" offset="0%"></stop>
            <stop stop-color="#FFFFFF" stop-opacity="0" offset="100%"></stop>
        </linearGradient>
    </defs>
    <g id="Page-1" stroke="none" stroke-width="1" fill="none" fill-rule="evenodd">
        <g id="web3" transform="translate(-1063.000000, -750.000000)">
            <g id="基因" transform="translate(1063.000000, 750.000000)">
                <g id="分组-6-copy-2">
                    <g id="分组-3">
                        <mask id="mask-2" fill="white">
                            <use xlink:href="#path-1"></use>
                        </mask>
                        <use id="Mask" fill="#0A897C" opacity="0.044678" transform="translate(57.500000, 57.500000) scale(-1, 1) translate(-57.500000, -57.500000) " xlink:href="#path-1"></use>
                        <mask id="mask-4" fill="white">
                            <use xlink:href="#path-3"></use>
                        </mask>
                        <use id="Mask" fill="#0A897C" opacity="0.104678199" transform="translate(57.500000, 57.500000) scale(-1, 1) translate(-57.500000, -57.500000) " xlink:href="#path-3"></use>
                        <circle id="椭圆形-copy-15" fill="#0A897C" opacity="0.602957589" mask="url(#mask-4)" transform="translate(54.170579, 26.219190) scale(-1, 1) translate(-54.170579, -26.219190) " cx="54.170579" cy="26.2191901" r="3.05946792"></circle>
                        <circle id="椭圆形-copy-16" fill="#0A897C" opacity="0.602957589" mask="url(#mask-4)" transform="translate(46.503912, 81.003912) scale(-1, 1) translate(-46.503912, -81.003912) " cx="46.5039124" cy="81.0039124" r="1.78169014"></circle>
                        <circle id="椭圆形-copy-17" fill="#0A897C" opacity="0.602957589" mask="url(#mask-4)" transform="translate(93.781690, 57.365023) scale(-1, 1) translate(-93.781690, -57.365023) " cx="93.7816901" cy="57.3650235" r="2.42057903"></circle>
                        <circle id="椭圆形-copy-18" fill="#0A897C" opacity="0.602957589" mask="url(#mask-4)" transform="translate(32.128912, 76.212246) scale(-1, 1) translate(-32.128912, -76.212246) " cx="32.1289124" cy="76.2122457" r="1.4622457"></circle>
                        <circle id="椭圆形-copy-19" fill="#0A897C" opacity="0.444614955" mask="url(#mask-4)" transform="translate(68.847027, 81.975743) scale(-1, 1) translate(-68.847027, -81.975743) " cx="68.8470266" cy="81.9757433" r="1"></circle>
                        <circle id="椭圆形-copy-20" fill="#0A897C" opacity="0.444614955" mask="url(#mask-4)" transform="translate(30.536189, 54.813967) scale(-1, 1) translate(-30.536189, -54.813967) " cx="30.5361894" cy="54.8139671" r="1.14730047"></circle>
                        <circle id="椭圆形-copy-22" fill="#0A897C" opacity="0.444614955" mask="url(#mask-4)" transform="translate(26.063967, 35.008412) scale(-1, 1) translate(-26.063967, -35.008412) " cx="26.0639671" cy="35.0084116" r="1.14730047"></circle>
                        <circle id="椭圆形-copy-21" fill="#0A897C" opacity="0.444614955" mask="url(#mask-4)" transform="translate(76.536189, 49.063967) scale(-1, 1) translate(-76.536189, -49.063967) " cx="76.5361894" cy="49.0639671" r="1.14730047"></circle>
                    </g>
                </g>
                <g id="jiyinxitong" transform="translate(30.347222, 23.159722)">
                    <path d="M37.5037214,17.6365889 C37.436516,18.7027465 37.3502302,19.7987221 37.2491041,20.9148625 L35.0542221,18.6948093 C34.4803261,18.1132493 33.5494145,18.1132493 32.9746705,18.6948093 C32.4007744,19.2759402 32.4007744,20.2178915 32.9746705,20.7990224 L36.8236112,24.6933934 C36.5876503,26.543402 36.29148,28.420869 35.8483908,30.2588645 C35.8367305,30.305415 35.8231622,30.3519656 35.811502,30.3980871 L28.9014291,23.4077833 C28.327957,22.8257943 27.3970455,22.8257943 26.8231495,23.4077833 C26.2479814,23.9889143 26.2479814,24.9300074 26.8231495,25.5111384 L34.8159291,33.5995629 C34.4841421,34.4514164 34.1118623,35.2603661 33.6802212,35.9798615 C33.4472284,36.2883393 33.3244778,36.5657118 32.8682442,37.0434449 L32.7264132,37.2049774 L32.6708681,37.2671878 L32.5932744,37.3360483 L27.1856771,31.8641073 C26.611781,31.2829764 25.6808695,31.2829764 25.1061254,31.8641073 C24.5322294,32.4460963 24.5322294,33.3871895 25.1061254,33.9687495 L30.2658897,39.1888455 C30.0059722,39.3647508 29.7426627,39.5342205 29.4526406,39.6738721 C27.7640252,40.6619449 25.8570452,41.3278107 23.9583333,41.8377214 C23.9839859,43.376678 23.9977662,44.8718728 23.9865299,46.3194444 C24.2954204,46.2492969 24.6007068,46.187301 24.9121413,46.1057839 C27.1057513,45.5596195 37.6234825,43.1169755 40.7291667,34.854229 C43.8348508,26.5914826 41.5252337,17.7627258 41.5277778,17.5975464 C40.9477336,17.5829591 40.3562412,17.5694444 39.7533006,17.5694444 C39.05623,17.5696591 38.294922,17.5876787 37.5037214,17.6365889 Z" id="路径" fill="#0A897C"></path>
                    <path d="M53.0387266,13.1622375 L52.9677206,13.1526356 C52.9677206,13.1526356 51.8610714,13.0077537 49.9249052,12.7561841 C47.9833092,12.4960794 45.2374659,12.0038223 41.7604699,11.5397307 C40.0187348,11.3197406 38.0836128,11.1373046 35.9325491,11.1895816 C33.7952689,11.250607 31.4351553,11.6003293 29.0957168,12.4674871 C28.5205684,12.7045472 27.9416607,12.9516359 27.3690183,13.2217693 C26.8237341,13.5396987 26.2721847,13.8578415 25.718338,14.1791849 C24.6492802,14.904448 23.4365397,15.8093732 22.7101903,16.5322892 L22.0815785,17.1043488 L21.9243211,17.2492307 L21.802149,17.3702146 L21.7795942,17.3964597 L21.7334403,17.4487367 L21.6423855,17.5526506 L21.2804638,17.9721467 C20.7740241,18.5192413 20.4047929,19.1440046 20.0031914,19.7495641 C19.2866575,20.9965302 18.7641369,22.2949197 18.3798693,23.5858411 C17.6389009,26.1668304 17.3928861,28.6955427 17.3128999,31.1147935 C17.2435646,33.5325506 17.3158237,35.8547156 17.4476024,38.0686991 C17.7184694,42.4930388 18.1190267,46.5059907 18.2048604,49.8719883 C18.340816,53.2403329 18.052824,55.922889 17.4948006,57.5532907 C17.3515355,57.9452614 17.212865,58.3248563 17.0944521,58.584961 C16.949934,58.8337568 16.918399,59.0202469 16.7513261,59.2438643 C16.4307549,59.6838445 16.2599229,59.9174906 16.2599229,59.9174906 C15.8366019,60.4989386 15.8792055,61.3268354 16.3958785,61.8557931 C16.9607938,62.4359609 17.8803213,62.4372411 18.4494134,61.8579268 C18.4494134,61.8579268 18.6503186,61.6509526 19.0306183,61.2653832 C19.21774,61.0797465 19.5011374,60.6668651 19.7941415,60.2633721 C20.0673058,59.843876 20.3231361,59.4024022 20.5804284,58.8632025 C21.5747211,56.7221933 22.2221286,53.568291 22.429299,49.9507238 C22.6437788,46.3239814 22.4990519,42.1923928 22.451645,37.8866898 C22.4353554,35.7377858 22.4140536,33.539592 22.5602424,31.3755383 C22.7187528,29.2210865 22.9793866,27.0809308 23.5434664,25.1899977 C23.8339645,24.2539196 24.2057017,23.3978573 24.6423885,22.6420816 C24.8919536,22.3011076 25.1014213,21.9178853 25.3887867,21.63751 L25.58823,21.4074913 L25.6383518,21.3498799 L25.6619509,21.3206475 L25.6682162,21.3106188 L25.7442343,21.241912 L26.3630306,20.6572633 C27.2449668,19.7728221 27.8739963,19.3814915 28.6114143,18.8288492 C29.0105097,18.5894419 29.407099,18.3498213 29.8018088,18.1127612 C30.21427,17.9188029 30.6248517,17.7263382 31.0316742,17.5360073 C34.3441035,16.1337039 38.0869543,16.0961499 41.4254888,16.1870478 C43.1273352,16.2363376 44.6867519,16.2809331 46.0703245,16.3214744 C47.4774961,16.3457992 48.7140445,16.3620157 49.7434224,16.31614 C50.7638203,16.3039776 51.5757946,16.2248153 52.1248379,16.1812867 C52.6738812,16.1360511 52.9670942,16.11322 52.9670942,16.11322 C53.6393538,16.0613697 54.2048956,15.5317719 54.2934443,14.8227253 C54.3961939,14.0089112 53.8337848,13.2648711 53.0387266,13.1622375 Z" id="路径" fill="#0A897C"></path>
                    <path d="M16.3323196,52.5617259 L11.091951,47.3473712 C11.7389314,47.3520949 12.3928175,47.3544568 13.0913751,47.3398561 C14.2465739,47.3293351 15.4904682,47.274368 16.7708333,47.1975001 C16.6922807,45.8984741 16.5889106,44.5382544 16.4833824,43.125 C15.257184,43.2602705 14.0609824,43.3749283 12.9314643,43.4404164 C11.2311446,43.5512094 9.6585808,43.614765 8.26081826,43.6877681 C6.85442359,43.7431646 5.62930421,43.7893284 4.62149955,43.8288359 C2.59078385,43.920734 1.43170056,43.9724803 1.43170056,43.9724803 C0.674012721,44.0119878 0.0421385961,44.6157665 0.00199905125,45.3848758 C-0.0402985126,46.2072344 0.593733632,46.9080643 1.41896817,46.9518662 C1.41896817,46.9518662 2.57805145,47.0173543 4.60337208,47.1307238 C5.27991763,47.1552013 6.08831945,47.1949236 6.95628312,47.2340017 C7.02706681,47.4326131 7.13410564,47.6219918 7.29531123,47.7825987 L14.215714,54.6680804 C14.5087759,54.9588046 14.8916122,55.1041667 15.2744485,55.1041667 C15.6572847,55.1041667 16.0401211,54.9588046 16.3327513,54.6680804 C16.9165011,54.0862026 16.9165011,53.1433889 16.3323196,52.5617259 Z" id="路径" fill="#0A897C"></path>
                    <path d="M37.593039,4.50612273 C37.6226274,5.85649876 37.6187398,7.62670854 37.5861278,9.6896917 C38.9735417,9.72423238 40.2352592,9.82477042 41.2997927,9.93702763 C41.2697724,9.36484482 41.2378083,8.81466116 41.2026046,8.28832703 L42.9625729,9.96375552 C43.255865,10.2423426 43.638786,10.3819444 44.022139,10.3819444 C44.405492,10.3819444 44.789709,10.2423426 45.0817051,9.96375552 C45.6672094,9.40678707 45.6672094,8.50482307 45.0817051,7.94785463 L40.8417128,3.9111184 C40.6663422,2.20916761 40.5218559,1.22722546 40.5218559,1.22722546 C40.4171088,0.523047921 39.7758834,-0.0121269564 39.0083134,0.000209000256 C38.1811348,0.0141897712 37.5209037,0.664500264 37.534942,1.45276789 L37.5375337,1.47250542 C37.5375337,1.47250542 37.5543796,2.36974069 37.5828881,3.94853749 C37.5479005,4.13501602 37.5502762,4.31923299 37.593039,4.50612273 Z" id="路径" fill="#0A897C"></path>
                    <path d="M19.1666667,33.5442025 C19.1666667,27.1170928 20.3204642,22.8569882 22.6280592,20.7638889" id="路径-5" stroke="url(#linearGradient-5)" stroke-width="1.6" stroke-linecap="round" stroke-linejoin="round"></path>
                    <circle id="椭圆形" fill="#FFFFFF" cx="24.7569444" cy="19.1666667" r="1"></circle>
                </g>
            </g>
        </g>
    </g>
</svg>