<?xml version="1.0" encoding="UTF-8"?>
<svg width="230px" height="34px" viewBox="0 0 230 34" version="1.1" xmlns="http://www.w3.org/2000/svg" xmlns:xlink="http://www.w3.org/1999/xlink">
    <!-- Generator: Sketch 52.4 (67378) - http://www.bohemiancoding.com/sketch -->
    <title>分组 15</title>
    <desc>Created with Sketch.</desc>
    <defs>
        <linearGradient x1="44.0574606%" y1="-13.5495356%" x2="58.8307794%" y2="113.346094%" id="linearGradient-1">
            <stop stop-color="#18BEB3" offset="0%"></stop>
            <stop stop-color="#02776C" offset="100%"></stop>
        </linearGradient>
    </defs>
    <g id="Page-1" stroke="none" stroke-width="1" fill="none" fill-rule="evenodd">
        <g id="web1.1" transform="translate(-58.000000, -13.000000)">
            <g id="分组-15" transform="translate(58.000000, 13.000000)">
                <path d="M22.5995197,9.08848392 C23.1766127,8.87401017 23.8013769,8.75675676 24.4536727,8.75675676 C27.3798407,8.75675676 29.7519685,11.1163371 29.7519685,14.027027 C29.7519685,16.9377169 27.3798407,19.2972973 24.4536727,19.2972973 C24.1492639,19.2972973 23.8508511,19.2717614 23.560481,19.2227257 C23.5573342,19.2232946 23.5541969,19.2238174 23.5510688,19.2242926 C23.5423644,19.2217239 23.5336675,19.2191617 23.5249781,19.2166062 C23.1971353,19.15895 22.8796988,19.071307 22.5756348,18.9566277 C18.4214064,17.9117342 16.1674028,18.6852334 15.0450728,22.6565685 C14.6788565,26.4589492 11.4584631,29.4324324 7.53988243,29.4324324 C3.37572035,29.4324324 0,26.0745681 0,21.9324324 C0,17.7902968 3.37572035,14.4324324 7.53988243,14.4324324 C8.92844422,14.4324324 10.2293373,14.8058015 11.3466312,15.4571167 C15.7399241,17.5377019 18.4942259,15.9395539 19.0619327,13.35069 C19.6589197,10.1450895 16.5797224,10.6801629 14.6343451,11.4535596 C13.9774391,11.8023101 13.2272373,12 12.430617,12 C9.84208379,12 7.74366304,9.9126789 7.74366304,7.33783784 C7.74366304,4.76299677 9.84208379,2.67567568 12.430617,2.67567568 C14.7577311,2.67567568 16.688728,4.36268365 17.0550207,6.57429368 C17.8725749,9.29516304 19.5428891,9.89726422 22.5995197,9.08848392 Z M21.1870079,4.45945946 C19.9421928,4.45945946 18.9330709,3.46117546 18.9330709,2.22972973 C18.9330709,0.998284004 19.9421928,0 21.1870079,0 C22.4318229,0 23.4409449,0.998284004 23.4409449,2.22972973 C23.4409449,3.46117546 22.4318229,4.45945946 21.1870079,4.45945946 Z" id="合并形状" fill="url(#linearGradient-1)"></path>
                <path d="M36.9645669,25.9174806 L39.980306,5.24795918 L39.980306,5.24795918 C40.0403839,4.83619253 40.4228894,4.55109244 40.8346561,4.61117031 C41.0408648,4.64125672 41.225404,4.75540336 41.3444059,4.92647574 L41.579641,5.26464033 L50.0157118,23.3782729 L58.4335029,5.25011053 L58.4855034,5.14727647 C58.6936953,4.73556461 59.1962265,4.57057903 59.6079384,4.77877087 C59.8042525,4.87804173 59.9534845,5.05074315 60.023234,5.25937905 L63.0668566,25.9174806 L63.0421479,26.0222643 C62.8958674,26.6426039 62.2743989,27.0269048 61.6540593,26.8806243 C61.1907641,26.771376 60.8420783,26.3888805 60.77605,25.9174806 L58.5175082,9.76996973 L51.140037,25.9819766 L51.140037,25.9819766 C51.0074287,26.6528757 50.3560571,27.0892466 49.685158,26.9566383 C49.2062266,26.8619738 48.8276168,26.4947429 48.7183863,26.0189222 L48.6950992,25.9174806 L41.4493856,9.64430817 L39.1908438,25.9174806 L39.1908438,25.9174806 C39.1040342,26.5320822 38.535428,26.9599422 37.9208264,26.8731326 C37.4383519,26.8049853 37.0547491,26.4337013 36.9708956,25.9537073 L36.9645669,25.9174806 Z M66.4494168,4.58643025 C66.4494168,4.10472518 66.6268718,3.68585749 66.9817873,3.32981461 C67.3367028,2.97377174 67.7668969,2.79575297 68.2723826,2.79575297 C68.7778683,2.79575297 69.2080624,2.96853589 69.5629779,3.31410692 C69.9178934,3.65967794 70.0953485,4.07854563 70.0953485,4.57072255 C70.0953485,5.06289947 69.9178934,5.48176716 69.5629779,5.82733818 C69.2080624,6.17290921 68.7778683,6.34569213 68.2723826,6.34569213 C67.7668969,6.34569213 67.3367028,6.16767336 66.9817873,5.81163049 C66.6268718,5.45558761 66.4494168,5.04719161 66.4494168,4.58643025 Z M68.2723826,9.23590809 L68.2723826,9.23590809 C68.887152,9.23590809 69.3855211,9.73427714 69.3855211,10.3490465 L69.3855211,25.4990864 C69.3855211,26.1138558 68.887152,26.6122248 68.2723826,26.6122248 L68.2723826,26.6122248 C67.6576132,26.6122248 67.1592442,26.1138558 67.1592442,25.4990864 L67.1592442,10.3490465 C67.1592442,9.73427714 67.6576132,9.23590809 68.2723826,9.23590809 Z M89.9975283,13.2256627 L89.9975283,13.2256627 C89.5009131,13.5301138 88.8597803,13.4508263 88.4522938,13.0345669 C88.0733305,12.6474571 87.7540047,12.3621212 87.4943104,12.1785652 C86.2299763,11.284914 84.7090523,10.838093 82.9315191,10.838093 C80.8665563,10.838093 79.1350249,11.4821021 77.7368731,12.7701396 C76.3387212,14.058177 75.6396557,15.6551101 75.6396557,17.5609867 C75.6396557,19.4668632 76.3279663,21.1004472 77.7046082,22.4617876 C79.08125,23.823128 80.8235363,24.503788 82.9315191,24.503788 C84.872754,24.503788 86.5452117,23.9243563 87.9489205,22.7654793 C88.0841594,22.6538285 88.2467516,22.5028598 88.4366972,22.3125733 L88.4366799,22.312556 C88.8526916,21.8957975 89.5036045,21.8270207 89.9975283,22.1476337 L89.9975283,22.1476337 C90.4188076,22.4210921 90.5386402,22.9842883 90.2651818,23.4055677 C90.2384826,23.4466993 90.2085003,23.4856041 90.1755282,23.5219014 C89.854052,23.8758412 89.575951,24.1469434 89.3412467,24.3352276 C88.7669014,24.7959781 88.119889,25.1872613 87.4002053,25.5090805 C85.9482783,26.1583352 84.3834472,26.4829577 82.7056649,26.4829577 C80.0599314,26.4829577 77.849809,25.6347506 76.0752316,23.938311 C74.3006542,22.2418714 73.4133789,20.1684763 73.4133789,17.7180636 C73.4133789,15.2676509 74.3114091,13.1680766 76.1074965,11.4192778 C77.9035839,9.67047892 80.2104999,8.79609262 83.0283137,8.79609262 C84.684586,8.79609262 86.7140555,9.09888525 88.5049064,10.3617565 C88.7628512,10.5644956 89.3127492,11.0958921 90.1546005,11.9559462 L90.154578,11.9559682 C90.4706217,12.2788455 90.465082,12.7967933 90.1422047,13.112837 C90.0983623,13.1557515 90.0498317,13.193598 89.9975283,13.2256627 Z M94.3480349,9.23590809 L94.3480349,9.23590809 C94.5177871,8.61313375 95.1602569,8.24588676 95.7830312,8.41563899 C96.1532944,8.5165632 96.4504194,8.79282687 96.5779833,9.15477715 L96.6065767,9.23590809 L96.6065767,11.6548932 C97.2088575,10.6705393 97.794997,9.94799258 98.3650127,9.48723121 C98.9350285,9.02646985 99.5695649,8.79609262 100.268641,8.79609262 C100.967717,8.79609262 101.67216,8.98458308 102.381991,9.36156965 L102.381991,9.36156965 C102.861321,9.7163134 102.962318,10.3924639 102.607574,10.8717941 C102.313752,11.2688069 101.787996,11.4158329 101.330854,11.2288247 L101.220455,11.1836623 C100.897804,10.995169 100.564404,10.9009238 100.220243,10.9009238 C99.5534326,10.9009238 98.9242737,11.236018 98.3327479,11.9062163 C97.7412221,12.5764147 97.3056505,13.4403293 97.0260201,14.4979861 C96.7463898,15.5556428 96.6065767,17.4771984 96.6065767,20.2627103 L96.6065767,25.9174806 L96.5989051,25.9611859 C96.4901324,26.5808688 95.8996024,26.9950434 95.2799194,26.8862706 C94.7915617,26.8005494 94.4147338,26.4087979 94.3480349,25.9174806 L94.3480349,9.23590809 Z M105.511363,17.6866482 C105.511363,15.2362355 106.377128,13.141897 108.108686,11.4035701 C109.840243,9.66524307 111.948194,8.79609262 114.432602,8.79609262 C116.917011,8.79609262 119.024962,9.66524307 120.756519,11.4035701 C122.488077,13.141897 123.353842,15.2257638 123.353842,17.6552328 C123.353842,20.0847019 122.498832,22.1633328 120.788784,23.8911879 C119.078737,25.619043 116.965408,26.4829577 114.448735,26.4829577 C111.932061,26.4829577 109.813355,25.619043 108.092553,23.8911879 C106.371751,22.1633328 105.511363,20.0951736 105.511363,17.6866482 Z M121.127565,17.7180636 C121.127565,15.8750181 120.466142,14.2780851 119.143275,12.9272165 C117.820408,11.576348 116.2502,10.9009238 114.432602,10.9009238 C112.615005,10.9009238 111.050174,11.576348 109.738062,12.9272165 C108.42595,14.2780851 107.769904,15.8854898 107.769904,17.749479 C107.769904,19.6134682 108.404441,21.1946937 109.673532,22.493203 C110.942624,23.7917123 112.51821,24.4409573 114.400338,24.4409573 C116.282465,24.4409573 117.874183,23.7864765 119.17554,22.4774953 C120.476897,21.1685142 121.127565,19.5820528 121.127565,17.7180636 Z M127.672084,9.23590809 L127.672084,9.23590809 C127.730949,8.63314311 128.267306,8.19222513 128.870071,8.25109022 C129.334228,8.29641904 129.718937,8.63036212 129.829067,9.08353706 L129.866096,9.23590809 L129.866096,12.283201 C131.608408,9.95845045 133.877682,8.79609262 136.673986,8.79609262 C139.083109,8.79609262 141.158796,9.66000723 142.901108,11.3878624 C144.643421,13.1157175 145.514564,15.1943484 145.514564,17.6238174 C145.514564,20.0532865 144.654176,22.1371532 142.933373,23.8754802 C141.212571,25.6138072 139.147639,26.4829577 136.738516,26.4829577 C134.114292,26.4829577 131.823509,25.3415432 129.866096,23.0586801 L129.866096,32.0120664 L129.834027,32.154307 C129.700819,32.7451311 129.113876,33.1161028 128.523052,32.9828955 C128.058786,32.8782219 127.715028,32.4860448 127.672084,32.0120664 L127.672084,9.23590809 Z M143.320552,17.6552328 C143.320552,15.7912437 142.659128,14.1943106 141.336262,12.8643857 C140.013395,11.5344609 138.39479,10.8695084 136.480397,10.8695084 C134.566004,10.8695084 132.958154,11.5239892 131.656797,12.8329703 C130.35544,14.1419515 129.704772,15.759828 129.704772,17.6866482 C129.704772,19.6134685 130.371573,21.2313449 131.705194,22.5403261 C133.038816,23.8493073 134.635912,24.503788 136.496529,24.503788 C138.357147,24.503788 139.95962,23.8388356 141.303997,22.5089107 C142.648374,21.1789859 143.320552,19.5611094 143.320552,17.6552328 Z M148.601809,2.79575297 L148.612962,2.72217476 C148.705316,2.11287783 149.274116,1.69381253 149.883413,1.78616622 C150.393983,1.86355556 150.784749,2.28117215 150.828086,2.79575297 L150.828086,12.2203702 C152.591909,9.93750707 154.732124,8.79609262 157.248798,8.79609262 C158.539399,8.79609262 159.700924,9.13642261 160.733405,9.81709282 C161.765886,10.497763 162.497216,11.3878569 162.927417,12.487401 C163.357618,13.5869452 163.572715,15.2048217 163.572715,17.3410789 L163.572715,25.9174806 L163.572715,25.9174806 C163.481522,26.531931 162.909484,26.9561149 162.295034,26.8649217 C161.823446,26.7949314 161.447216,26.4352282 161.356127,25.9672572 L161.346438,25.9174806 L161.346438,17.9693867 C161.346438,16.2520035 161.292664,15.0687022 161.185113,14.4194476 C161.077563,13.7701929 160.840956,13.1523631 160.475286,12.5659395 C160.109615,11.979516 159.62027,11.534469 159.007234,11.2307854 C158.394198,10.9271018 157.652113,10.7752622 156.780957,10.7752622 C155.909801,10.7752622 155.0763,10.9742244 154.280429,11.3721547 C153.484558,11.7700849 152.807002,12.3250846 152.247741,13.0371704 C151.68848,13.7492561 151.31206,14.4822746 151.11847,15.2362477 C150.92488,15.9902209 150.828086,17.5086163 150.828086,19.7914794 L150.828086,25.9174806 L150.812145,25.9815652 C150.661278,26.5880716 150.047305,26.9574398 149.440798,26.8065723 C149.01135,26.6997475 148.683573,26.3523971 148.601809,25.9174806 L148.601809,2.79575297 Z M185.060805,20.9852643 L185.060805,20.9852643 C185.524928,21.2190075 185.711688,21.7847403 185.477945,22.2488637 C185.460393,22.283715 185.44069,22.3174406 185.41895,22.3498453 C185.00692,22.9640484 184.662618,23.4201952 184.386063,23.7182988 C182.676182,25.5614115 180.481241,26.4829577 177.801206,26.4829577 C175.220003,26.4829577 173.090542,25.619043 171.412759,23.8911879 C169.734977,22.1633328 168.896099,20.0847019 168.896099,17.6552328 C168.896099,15.2257638 169.740355,13.141897 171.428892,11.4035701 C173.117429,9.66524307 175.203871,8.79609262 177.688279,8.79609262 C180.172687,8.79609262 182.259129,9.60241292 183.947666,11.2150777 C185.636203,12.8277425 186.512724,15.0267979 186.577254,17.8123098 L171.15464,17.8123098 C171.21917,19.8229049 171.869839,21.4407813 173.106666,22.6659877 C174.343492,23.891194 175.843794,24.503788 177.607617,24.503788 C179.750757,24.503788 181.495523,23.7793986 182.841941,22.3306036 C183.042248,22.1150663 183.285683,21.7957021 183.572247,21.3725107 L183.57226,21.3725194 C183.900585,20.8876545 184.537815,20.7218748 185.060805,20.9852643 Z M184.125123,15.9588017 C183.823983,14.3670806 183.071143,13.1209493 181.866581,12.2203702 C180.66202,11.3197912 179.274644,10.8695084 177.704411,10.8695084 C174.477907,10.8695084 172.369956,12.5659226 171.380495,15.9588017 L184.125123,15.9588017 Z M192.094227,9.23590809 L192.105179,9.17308233 C192.211382,8.56385713 192.791351,8.1560768 193.400576,8.26227946 C193.888931,8.34741147 194.263186,8.74351358 194.320504,9.23590809 L194.320504,12.2203702 C196.084327,9.93750707 198.224542,8.79609262 200.741216,8.79609262 C202.031817,8.79609262 203.193342,9.13642261 204.225823,9.81709282 C205.258304,10.497763 205.989634,11.3878569 206.419835,12.487401 C206.850036,13.5869452 207.065133,15.2048217 207.065133,17.3410789 L207.065133,25.9174806 L207.06307,25.9286142 C206.951048,26.533351 206.370001,26.9327754 205.765264,26.8207535 C205.307788,26.7360105 204.951212,26.3757934 204.871121,25.9174806 L204.871121,17.9693867 C204.871121,16.0216228 204.779704,14.7021895 204.596869,14.0110475 C204.414034,13.3199054 204.134408,12.7334907 203.757982,12.2517856 C203.381557,11.7700805 202.902966,11.4035713 202.322195,11.1522469 C201.741424,10.9009225 201.036981,10.7752622 200.208845,10.7752622 C199.380709,10.7752622 198.568718,10.9742244 197.772847,11.3721547 C196.976975,11.7700849 196.29942,12.3250846 195.740159,13.0371704 C195.180898,13.7492561 194.804478,14.4822746 194.610888,15.2362477 C194.417298,15.9902209 194.320504,17.5086163 194.320504,19.7914794 L194.320504,25.9174806 L194.320504,25.9174806 C194.198218,26.5308291 193.601868,26.9289137 192.98852,26.8066276 C192.577171,26.7246152 192.244847,26.4219508 192.124848,26.0200381 L192.094227,25.9174806 L192.094227,9.23590809 Z M211.15752,17.6866482 C211.15752,15.2362355 212.023286,13.141897 213.754843,11.4035701 C215.486401,9.66524307 217.594352,8.79609262 220.07876,8.79609262 C222.563168,8.79609262 224.67112,9.66524307 226.402677,11.4035701 C228.134234,13.141897 229,15.2257638 229,17.6552328 C229,20.0847019 228.144989,22.1633328 226.434942,23.8911879 C224.724895,25.619043 222.611566,26.4829577 220.094893,26.4829577 C217.578219,26.4829577 215.459513,25.619043 213.738711,23.8911879 C212.017908,22.1633328 211.15752,20.0951736 211.15752,17.6866482 Z M226.773723,17.7180636 C226.773723,15.8750181 226.1123,14.2780851 224.789433,12.9272165 C223.466566,11.576348 221.896358,10.9009238 220.07876,10.9009238 C218.261163,10.9009238 216.696331,11.576348 215.38422,12.9272165 C214.072108,14.2780851 213.416062,15.8854898 213.416062,17.749479 C213.416062,19.6134682 214.050598,21.1946937 215.31969,22.493203 C216.588782,23.7917123 218.164368,24.4409573 220.046495,24.4409573 C221.928623,24.4409573 223.520341,23.7864765 224.821698,22.4774953 C226.123055,21.1685142 226.773723,19.5820528 226.773723,17.7180636 Z" id="Micropheno" stroke="#0A897C" stroke-width="0.61420659" fill="#0A897C"></path>
            </g>
        </g>
    </g>
</svg>