<?xml version="1.0" encoding="UTF-8"?>
<svg width="23px" height="28px" viewBox="0 0 23 28" version="1.1" xmlns="http://www.w3.org/2000/svg" xmlns:xlink="http://www.w3.org/1999/xlink">
    <!-- Generator: Sketch 52.4 (67378) - http://www.bohemiancoding.com/sketch -->
    <title>细菌 copy 2</title>
    <desc>Created with Sketch.</desc>
    <g id="Page-1" stroke="none" stroke-width="1" fill="none" fill-rule="evenodd">
        <g id="web1" transform="translate(-331.000000, -459.000000)">
            <g id="Microbe" transform="translate(321.000000, 452.000000)">
                <g id="细菌-copy" transform="translate(5.000000, 5.000000)">
                    <g id="分组">
                        <g id="xijun">
                            <rect id="矩形" x="0" y="0" width="32" height="32"></rect>
                            <path d="M27.1918115,8.96981575 C27.6445886,8.9753038 28.0056641,9.32653859 27.9999327,9.76009407 C27.9999327,10.1881615 27.6331259,10.5393963 27.1860801,10.5448844 L26.7390343,10.5448844 C26.5900191,11.752254 26.1028538,12.877303 25.317658,13.8322227 L25.6328826,14.128577 C25.9538385,14.4304195 25.9538385,14.9298314 25.6328826,15.2371619 C25.4781359,15.3853391 25.2718071,15.4676597 25.0540156,15.4676597 C24.8362241,15.4676598 24.6298952,15.3853391 24.4751486,15.2371619 L24.2000435,14.9737358 L21.9533518,17.125049 L22.2284569,17.3884751 C22.5494129,17.6903175 22.5494129,18.1897295 22.2284569,18.49706 C22.0737103,18.6452372 21.8673815,18.7275578 21.64959,18.7275578 C21.4317985,18.7275578 21.2254696,18.6452372 21.070723,18.49706 L20.7956179,18.2336339 L18.5489262,20.3849471 L18.8240313,20.6483732 C18.978778,20.7965504 19.0647483,20.99412 19.0647483,21.2026656 C19.0647483,21.4112113 18.978778,21.6087808 18.8240313,21.756958 C18.6692847,21.9051352 18.4629559,21.9874559 18.2451644,21.9874559 C18.0273728,21.9874559 17.821044,21.9051352 17.6662974,21.756958 L17.3568041,21.4606037 C16.3595481,22.2124657 15.1846201,22.6789494 13.9237217,22.8216386 L13.9237217,23.244218 C13.9237217,23.5789886 13.7059302,23.8643669 13.3964369,23.9796158 C14.233215,24.0454723 15.0069481,24.3857311 15.6087405,24.9619757 C16.2793092,25.6040768 16.6461159,26.4547236 16.6461159,27.3657389 C16.6461159,28.2767542 16.2793092,29.127401 15.6087405,29.7695021 C15.4539938,29.9176793 15.247665,30 15.0298735,30 C14.812082,30 14.6057531,29.9176793 14.4510065,29.7695021 C14.1357819,29.4621717 14.1357819,28.9682477 14.4510065,28.6609173 C15.1960828,27.9474716 15.1960828,26.7894943 14.4510065,26.0760486 C14.0899311,25.7357899 13.6142285,25.5437084 13.0984064,25.5437084 C12.5825844,25.5437083 12.1068818,25.7303018 11.7458063,26.0760486 L11.3159546,26.4876519 C10.6453859,27.129753 9.75702572,27.4809878 8.80562057,27.4809878 C7.85994679,27.4809878 6.96585522,27.129753 6.29528653,26.4876519 C5.62471783,25.8455507 5.25791105,24.9894159 5.25791105,24.0838887 C5.25791105,23.1783614 5.62471783,22.3222266 6.29528653,21.6801254 L7.68227475,20.3520188 C6.89707893,19.4025872 6.40991366,18.2720502 6.26089838,17.0646805 L5.81958397,17.0646805 C5.36680679,17.0646805 4.99999997,16.7134457 5,16.2798902 C5.00000003,15.8463348 5.36680682,15.4951 5.81958397,15.4951 L6.26662974,15.4951 C6.41564501,14.2877303 6.90281032,13.1626813 7.68800611,12.2077617 L7.37851287,11.9059192 C7.05755692,11.6040768 7.05755692,11.1046648 7.37851287,10.7973344 C7.53325948,10.6491572 7.7395883,10.5668365 7.95737984,10.5668365 C8.17517138,10.5668365 8.38150021,10.6491572 8.53624684,10.7973344 L8.81135193,11.0607605 L11.0580436,8.90944728 L10.7772071,8.64053314 C10.4677139,8.33320267 10.4734452,7.83927873 10.7886698,7.53743631 C10.9434164,7.38925911 11.1497453,7.30693846 11.3675368,7.30693846 C11.5853284,7.30693846 11.7859258,7.38377107 11.9406725,7.52646022 L11.9464038,7.53194826 L12.2215089,7.79537436 L14.4682006,5.64406116 L14.1930955,5.38063504 C14.0383488,5.23245787 13.9523785,5.03488829 13.9523785,4.82634262 C13.9523785,4.61779695 14.0383488,4.42022737 14.1930955,4.27205017 C14.3478421,4.123873 14.5541709,4.04155237 14.7719625,4.04155234 C14.989754,4.04155232 15.1960828,4.12387297 15.3508294,4.27205017 L15.6603227,4.56840454 C16.6575786,3.81654254 17.8325067,3.35005881 19.0934051,3.20736966 L19.0934051,2.78479027 C19.0934051,2.3512348 19.4602119,2 19.912989,2 C20.3657662,2 20.732573,2.3512348 20.732573,2.78479027 L20.732573,3.20736966 C21.9934714,3.35005879 23.1683994,3.81654254 24.1713867,4.56840454 L24.48088,4.27205017 C24.6356266,4.123873 24.8419554,4.04155237 25.0597469,4.04155234 C25.2775385,4.04155232 25.4838673,4.12387297 25.6386139,4.27205017 C25.9595699,4.57938063 25.9595699,5.07879262 25.6386139,5.38612309 L25.3233893,5.68247746 C26.1085851,6.63190904 26.5957504,7.76244609 26.7447657,8.96981575 L27.1918115,8.96981575 Z M10.7536372,25.1477832 C11.3646945,24.6305419 12.1503395,24.320197 13,24.2610837 C12.685742,24.1576355 12.4645975,23.9014779 12.4645975,23.6009852 L12.4645975,23.2216749 C11.1842871,23.0935961 9.99127061,22.6748768 8.97866151,22 L7.57032009,23.1921182 C7.20368574,23.502463 7,23.9162562 7,24.3546798 C7,24.7931034 7.20368574,25.2068965 7.57032009,25.5172414 C7.93695441,25.8275862 8.4258002,26 8.94374394,26 C9.46168768,26 9.95053345,25.8275862 10.3171678,25.5172414 L10.7536372,25.1477832 Z M15.1261429,13.1506849 C15.114407,13.5055447 15.102671,13.6203523 14.9148953,13.7873451 C14.7271197,13.9543379 14.5980239,13.964775 14.1990006,13.975212 C13.7060895,13.9856491 12.966723,14.0065232 12.2625642,14.6327462 C12.0043727,14.8623614 11.9339569,15.2067841 12.0630526,15.5094586 C12.2038843,15.8121331 12.5324918,16 12.8963071,16 C13.1310266,16 13.3657462,15.9165036 13.5300499,15.7703849 C13.7178256,15.603392 13.8469214,15.592955 14.2459446,15.5825179 C14.7388557,15.5720809 15.4782223,15.5512068 16.182381,14.9249837 C16.8865397,14.2987607 16.9100116,13.6412264 16.9217476,13.2028702 C16.9334836,12.8480105 16.9452196,12.7332029 17.1329952,12.56621 C17.3207709,12.3992172 17.4498667,12.3887802 17.8488899,12.3783431 C18.341801,12.3679061 19.0811675,12.3470319 19.7853263,11.7208089 C20.489485,11.0945858 20.5129569,10.4370516 20.5246929,9.99869537 C20.5364289,9.64383563 20.5481649,9.52902803 20.7359405,9.36203521 C21.0880198,9.04892368 21.0880198,8.54794517 20.7359405,8.23483365 C20.3838612,7.92172212 19.8205342,7.92172212 19.4684549,8.23483365 C18.7642962,8.86105676 18.7408242,9.51859098 18.7290882,9.95694716 C18.7173522,10.3118069 18.7056163,10.4266145 18.5178406,10.5936073 C18.330065,10.7606001 18.2009692,10.7710372 17.801946,10.7814742 C17.3090349,10.7919113 16.5696683,10.8127854 15.8655096,11.4390085 C15.1730869,12.0547945 15.1496149,12.7123287 15.1261429,13.1506849 Z" id="合并形状" fill="#0A897C" fill-rule="nonzero"></path>
                        </g>
                    </g>
                    <g id="分组-copy"></g>
                </g>
            </g>
        </g>
    </g>
</svg>