<?xml version="1.0" encoding="UTF-8"?>
<svg width="22px" height="22px" viewBox="0 0 22 22" version="1.1" xmlns="http://www.w3.org/2000/svg" xmlns:xlink="http://www.w3.org/1999/xlink">
    <!-- Generator: Sketch 52.4 (67378) - http://www.bohemiancoding.com/sketch -->
    <title>Services</title>
    <desc>Created with Sketch.</desc>
    <g id="Services" stroke="none" stroke-width="1" fill="none" fill-rule="evenodd">
        <g id="分组-3" fill="#757575" fill-rule="nonzero">
            <path d="M6.56535852,4.96377538 L7.49230551,6.73599694 C5.36273332,7.84985347 4,10.0536213 4,12.5 C4,13.046351 4.06718834,13.5830025 4.19862849,14.1018865 L2.25986429,14.593001 C2.08784051,13.9139056 2,13.2122996 2,12.5 C2,9.30188446 3.78245913,6.41934972 6.56535852,4.96377538 Z M7.0277106,20.2604661 L7.84545986,18.435285 C8.67266949,18.8059058 9.57172682,19 10.5,19 C11.9019582,19 13.2342771,18.5562063 14.3400558,17.7450511 L15.523021,19.3576867 C14.0769948,20.4184338 12.3310674,21 10.5,21 C9.28848573,21 8.11089953,20.7457752 7.0277106,20.2604661 Z M18.8755256,13.956523 L16.9047415,13.6159205 C16.9679516,13.2501763 17,12.8773493 17,12.5 C17,10.1280487 15.7194882,7.98118214 13.6908606,6.83558481 L14.6743125,5.09408479 C17.3248689,6.59089489 19,9.39936799 19,12.5 C19,12.9916313 18.9581565,13.4784063 18.8755256,13.956523 Z" id="形状"></path>
            <path d="M10.5,9 C8.01471863,9 6,6.98528137 6,4.5 C6,2.01471863 8.01471863,0 10.5,0 C12.9852814,0 15,2.01471863 15,4.5 C15,6.98528137 12.9852814,9 10.5,9 Z M10.5,7 C11.8807119,7 13,5.88071187 13,4.5 C13,3.11928813 11.8807119,2 10.5,2 C9.11928813,2 8,3.11928813 8,4.5 C8,5.88071187 9.11928813,7 10.5,7 Z" id="椭圆形"></path>
            <path d="M4.5,22 C2.01471863,22 0,19.9852814 0,17.5 C0,15.0147186 2.01471863,13 4.5,13 C6.98528137,13 9,15.0147186 9,17.5 C9,19.9852814 6.98528137,22 4.5,22 Z M4.5,20 C5.88071187,20 7,18.8807119 7,17.5 C7,16.1192881 5.88071187,15 4.5,15 C3.11928813,15 2,16.1192881 2,17.5 C2,18.8807119 3.11928813,20 4.5,20 Z" id="椭圆形-copy-11"></path>
            <path d="M17.5,22 C15.0147186,22 13,19.9852814 13,17.5 C13,15.0147186 15.0147186,13 17.5,13 C19.9852814,13 22,15.0147186 22,17.5 C22,19.9852814 19.9852814,22 17.5,22 Z M17.5,20 C18.8807119,20 20,18.8807119 20,17.5 C20,16.1192881 18.8807119,15 17.5,15 C16.1192881,15 15,16.1192881 15,17.5 C15,18.8807119 16.1192881,20 17.5,20 Z" id="椭圆形-copy-12"></path>
        </g>
    </g>
</svg>