<?xml version="1.0" encoding="UTF-8"?>
<svg width="20px" height="22px" viewBox="0 0 20 22" version="1.1" xmlns="http://www.w3.org/2000/svg" xmlns:xlink="http://www.w3.org/1999/xlink">
    <!-- Generator: Sketch 52.4 (67378) - http://www.bohemiancoding.com/sketch -->
    <title>submission2</title>
    <desc>Created with Sketch.</desc>
    <g id="submission2" stroke="none" stroke-width="1" fill="none" fill-rule="evenodd">
        <g fill="#0A897C">
            <path d="M16.6666667,1 L15.5555556,1 C14.9419058,1 14.4444444,1.49484317 14.4444444,2.10526316 C14.4444444,2.71568314 14.9419058,3.21052632 15.5555556,3.21052632 L16.6666667,3.21052632 C17.2803164,3.21052632 17.7777778,3.70536949 17.7777778,4.31578947 L17.7777778,18.6842105 C17.7777778,19.2946305 17.2803164,19.7894737 16.6666667,19.7894737 L3.33333333,19.7894737 C2.71968361,19.7894737 2.22222222,19.2946305 2.22222222,18.6842105 L2.22222222,4.31578947 C2.22222222,3.70536949 2.71968361,3.21052632 3.33333333,3.21052632 L4.44444444,3.21052632 C5.05809417,3.21052632 5.55555556,2.71568314 5.55555556,2.10526316 C5.55555556,1.49484317 5.05809417,1 4.44444444,1 L3.33333333,1 C1.49238417,1 1.54197642e-16,2.48452951 0,4.31578947 L0,18.6842105 C1.54197642e-16,20.5154705 1.49238417,22 3.33333333,22 L16.6666667,22 C18.5076158,22 20,20.5154705 20,18.6842105 L20,4.31578947 C20,2.48452951 18.5076158,1 16.6666667,1 Z" id="路径"></path>
            <path d="M7.80324913,5.52455944 C8.40090037,5.52455944 8.88539242,5.02987354 8.88539242,4.41964755 L8.88539242,1.10491189 C8.8853924,0.494685915 8.40090035,3.2782554e-08 7.80324913,3.2782554e-08 C7.20559791,3.2782554e-08 6.72110587,0.494685915 6.72110585,1.10491189 L6.72110585,4.41964755 C6.72110585,5.02987354 7.2055979,5.52455944 7.80324913,5.52455944 Z M12.1318223,5.52455944 C12.7294735,5.52455944 13.2139656,5.02987354 13.2139656,4.41964755 L13.2139656,1.10491189 C13.2139656,0.494685902 12.7294735,3.7365565e-17 12.1318223,0 C11.534171,-3.7365565e-17 11.049679,0.494685902 11.049679,1.10491189 L11.049679,4.41964755 C11.049679,4.71268841 11.1636902,4.99372707 11.3666314,5.20093824 C11.5695726,5.40814942 11.84482,5.52455944 12.1318223,5.52455944 Z M5.26021242,13.0932059 L7.80324913,15.6786997 C8.22532554,16.1071001 8.90699475,16.1071001 9.32907116,15.6786997 L14.7397876,10.1541403 C15.1074748,9.7157551 15.0827537,9.06227276 14.6830435,8.65415251 C14.2833332,8.24603226 13.643317,8.22079107 13.2139656,8.59621449 L8.549928,13.3362865 L6.78603445,11.5352801 C6.35668298,11.1598567 5.71666676,11.1850979 5.31695652,11.5932181 C4.91724629,12.0013384 4.89252524,12.6548207 5.26021242,13.0932059 Z" id="形状" fill-rule="nonzero"></path>
        </g>
    </g>
</svg>