<?xml version="1.0" encoding="UTF-8"?>
<svg width="33px" height="252px" viewBox="0 0 33 252" version="1.1" xmlns="http://www.w3.org/2000/svg" xmlns:xlink="http://www.w3.org/1999/xlink">
    <!-- Generator: Sketch 52.4 (67378) - http://www.bohemiancoding.com/sketch -->
    <title>血液 2</title>
    <desc>Created with Sketch.</desc>
    <defs>
        <path d="M11.4129973,67.2765921 C6.98453595,70.4826711 4.04282628,73.9285867 2.57417614,77.6081155 C1.52848015,80.2279828 1.43717995,82.2296321 1.70285676,89.5219721 C1.95970501,96.5719845 1.89324709,101.152645 1.19122664,107.444702 L1.70530257e-13,107.311578 C0.694214475,101.089484 0.759904796,96.5617308 0.505022599,89.565683 C0.232334093,82.0808848 0.327054542,80.0042505 1.46107091,77.163107 C3.12495574,72.9944408 6.5248535,69.1582103 11.6441237,65.6468518 C12.4458103,60.093143 13.2991782,55.20359 14.1360708,51.546229 C14.8895271,48.2534987 15.3282229,43.3386649 15.451159,36.8065473 C15.3567079,36.6538302 15.2615587,36.5007004 15.1657114,36.3471523 L15.4621871,36.1617861 C15.60146,27.1271906 15.1556922,15.0966881 14.122364,0.0824323841 L15.3181609,-2.27373675e-13 C16.3643279,15.2008039 16.8109967,27.3551882 16.6555878,36.4755931 C19.5819065,41.2358666 21.8378092,45.6007863 23.4229616,49.5721979 C23.4743396,49.7009194 23.9802793,50.9580137 24.1319943,51.3412932 C27.704953,60.3677041 27.7633764,67.5912205 22.0574129,79.7885782 L20.9718664,79.2799299 C26.5301527,67.3982543 26.4744914,60.5162471 23.0176231,51.7831166 C22.8674354,51.4036955 22.3624018,50.1488527 22.3098564,50.0172064 C20.9307139,46.5619283 19.0287528,42.7916373 16.6037412,38.7076133 C16.43417,44.4009834 16.0013228,48.768585 15.3044541,51.8140183 C11.4782805,68.5350382 7.2803871,111.498135 9.37056988,124.839067 C15.6616598,131.226827 19.5565918,139.990841 21.0617291,151.110898 L19.8739476,151.27193 C18.5055074,141.161801 15.1361579,133.084644 9.7710115,127.024221 C10.8014533,133.394244 9.95206481,142.836468 7.1026552,164.293099 C7.0745908,164.50442 7.0745908,164.50442 7.04652436,164.715729 C4.28890954,185.477184 3.50915181,193.588766 4.14027693,200.176376 C5.22677632,211.51713 4.62476495,226.359 2.33740936,244.709224 L1.14799883,244.560723 C3.42537633,226.290548 4.02402751,211.531519 2.9471189,200.290872 C2.30310882,193.56877 3.08411172,185.444236 5.85834631,164.557654 C5.88641151,164.346354 5.88641151,164.346354 5.91447324,164.135054 C8.91291271,141.556197 9.6835793,132.318729 8.38540586,126.12281 C8.33821867,125.897595 8.29338193,125.661183 8.25084992,125.413953 C8.18855613,125.352068 8.12602648,125.290421 8.06326099,125.229012 L8.19763606,125.091445 C6.56652012,114.783749 8.62882416,87.2568741 11.4129973,67.2765921 Z" id="path-1"></path>
        <filter x="-26.3%" y="-2.0%" width="152.6%" height="105.7%" filterUnits="objectBoundingBox" id="filter-2">
            <feOffset dx="0" dy="2" in="SourceAlpha" result="shadowOffsetOuter1"></feOffset>
            <feGaussianBlur stdDeviation="2" in="shadowOffsetOuter1" result="shadowBlurOuter1"></feGaussianBlur>
            <feColorMatrix values="0 0 0 0 1   0 0 0 0 0.383010149   0 0 0 0 0.372531712  0 0 0 1 0" type="matrix" in="shadowBlurOuter1"></feColorMatrix>
        </filter>
    </defs>
    <g id="血液-2" stroke="none" stroke-width="1" fill="none" fill-rule="evenodd">
        <g id="血液" transform="translate(3.000000, 3.000000)" fill-rule="nonzero">
            <g>
                <use fill="black" fill-opacity="1" filter="url(#filter-2)" xlink:href="#path-1"></use>
                <use fill="#FF6363" xlink:href="#path-1"></use>
            </g>
        </g>
    </g>
</svg>