<?xml version="1.0" encoding="UTF-8"?>
<svg width="37px" height="22px" viewBox="0 0 37 22" version="1.1" xmlns="http://www.w3.org/2000/svg" xmlns:xlink="http://www.w3.org/1999/xlink">
    <!-- Generator: Sketch 52.4 (67378) - http://www.bohemiancoding.com/sketch -->
    <title>宫颈 copy</title>
    <desc>Created with Sketch.</desc>
    <g id="宫颈-copy" stroke="none" stroke-width="1" fill="none" fill-rule="evenodd">
        <g id="宫颈" fill="#FFBF4C" stroke="#FFFFFF" stroke-width="1.2">
            <path d="M18.2224237,17.415739 C18.9209873,14.3051821 20.2217011,10.5168314 21.2473534,9.56949563 C22.7528571,8.17894903 24.7666419,7.82929325 28.3391798,7.90891042 C28.6169159,7.91510002 28.8504871,7.92169867 29.3282406,7.93620906 C32.063911,8.01929719 33.1499574,7.97618654 34.1805817,7.6357293 C35.4082693,7.23017401 35.9922521,6.42083995 35.9922521,4.8586968 C35.9922521,0.931740217 30.2896394,0.222338769 18.4818655,3.16983675 L18.3365504,3.20611082 L18.1912353,3.16983674 C6.38346318,0.222338176 0.680848821,0.93173959 0.680848821,4.8586968 C0.680848821,6.42083995 1.26483158,7.23017401 2.49251919,7.6357293 C3.52314351,7.97618654 4.60918993,8.01929719 7.34486033,7.93620906 C7.82261376,7.92169867 8.05618498,7.91510002 8.33392108,7.90891042 C11.906459,7.82929325 13.9202438,8.17894903 15.4257474,9.56949563 C16.3761134,10.4472937 17.2830846,13.0262116 18.2224237,17.415739 Z" id="路径"></path>
        </g>
    </g>
</svg>