<?xml version="1.0" encoding="UTF-8"?>
<svg width="47px" height="92px" viewBox="0 0 47 92" version="1.1" xmlns="http://www.w3.org/2000/svg" xmlns:xlink="http://www.w3.org/1999/xlink">
    <!-- Generator: Sketch 52.4 (67378) - http://www.bohemiancoding.com/sketch -->
    <title>肠胃道 2</title>
    <desc>Created with Sketch.</desc>
    <g id="肠胃道-2" stroke="none" stroke-width="1" fill="none" fill-rule="evenodd">
        <g id="肠胃道" transform="translate(2.000000, 0.000000)" fill="#FFBD7A" stroke="#FFFFFF" stroke-width="1.2">
            <path d="M25.4255531,12.3807111 C27.3170561,16.1214588 27.3485256,18.7061674 25.6846167,20.0053888 C24.3745637,21.0283107 22.161619,21.0077002 20.1481708,20.2059198 C19.0453921,19.7667794 15.858893,20.7497627 13.0146838,22.5202179 C9.7446234,24.5557557 7.6952593,27.0631774 7.7656105,29.2956697 C7.77608669,29.628116 7.68488312,29.7276882 7.29895585,30.0568419 C7.1671829,30.1692297 7.0000861,30.3031349 6.60138777,30.6204214 C5.79177981,31.2690738 5.1902339,31.793818 4.5769168,32.4216691 C0.568964893,36.5245989 0.31830877,40.879709 6.27979824,45.9441632 C7.52962451,47.005926 7.48186851,47.988251 6.31239081,48.765124 C6.01070439,48.9655314 4.39018877,49.8124438 3.95238906,50.0855939 C1.77940944,51.4413502 0.851141656,53.1800608 1.42556169,56.2190917 C1.99696034,59.2421378 8.24938373,60.733723 20.2246058,61.4502795 C21.2214928,61.5099298 22.264751,61.5660619 23.490043,61.6271271 C23.9716746,61.6511303 24.4654162,61.6751356 25.098437,61.7054683 C25.225103,61.7115378 26.3503024,61.765257 26.6766981,61.7809597 C37.3486022,62.2943784 40.1922521,62.6922024 40.1922521,64.6618326 C40.1922521,66.9776879 38.2012694,68.3030948 34.526778,68.9856966 C31.8749004,69.4783297 29.2280342,69.6165441 22.8507259,69.7377981 C22.3294576,69.7477041 22.0947259,69.7522074 21.8079778,69.7578726 C9.3656788,70.0036921 4.6,71.0574634 4.6,74.7089279 C4.6,80.1344826 9.87619982,81.5247265 22.6461984,81.216175 C23.2608356,81.201324 23.7957995,81.1867116 24.8325189,81.1571812 C34.0938126,80.8933778 37.416551,81.0753314 39.8974143,82.5408081 C40.4253246,82.8526512 40.2910206,83.4519685 39.8669313,83.695466 C39.7358408,83.7707336 39.5650794,83.829474 39.3186834,83.8948035 C38.9655649,83.9884294 38.5008747,84.0853624 37.551882,84.2696418 C34.6221859,84.8385424 33.6060951,85.0511672 31.9682954,85.4811872 C27.2819826,86.7116236 24.6,88.2388358 24.6,90 C24.6,90.7888896 25.4831436,91.2669166 27.2872121,91.3037092 C29.1481336,91.3416612 31.6849734,90.866586 34.2586497,90.0014572 C40.0166377,88.0659375 44.1590732,84.90789 43.9996283,82.1881097 C43.8147247,79.0340597 39.0276363,78.4261747 25.9092193,78.9144202 C25.7545477,78.9201802 25.7545477,78.9201802 25.5998648,78.9259475 C18.6763201,79.1841036 15.8217632,79.2014192 12.9149148,78.8550691 C8.875044,78.3737197 6.65228979,77.1310393 6.57157138,74.7290797 C6.52537812,73.3544942 7.92677879,72.7184508 10.6044088,72.4047233 C12.4788929,72.1850974 14.4069973,72.1314187 19.2651382,72.0990967 C22.4667505,72.0777958 23.8589009,72.060255 25.6493615,72.0050263 C38.0731734,71.6218004 44.0985296,69.486543 43.5323111,64.0891654 C42.9599497,60.2804739 36.9197729,58.7217666 24.4982271,58.1259556 C23.2448518,58.0658363 22.6083173,58.0398459 19.88819,57.9335208 C11.5324667,57.6069099 8.31962887,57.3023844 6.12983457,56.3292129 C5.03474371,55.8425411 4.43894612,55.2956326 4.3735087,54.5859574 C4.27308552,53.4968582 4.56345009,53.2710185 7.70216457,51.3023481 C9.39271575,50.2419974 10.2108392,49.5345311 10.425839,48.8258186 C11.2291078,46.1779716 10.3841582,44.7476995 7.67923791,42.7789862 C7.6121072,42.7301266 6.85966093,42.1890101 6.64382089,42.0294708 C3.1420078,39.4410863 3.09009593,37.1127376 7.9475581,32.7689609 L8.24378159,32.5040635 L8.60326306,32.6734507 C14.1621923,35.2928108 24.4401619,34.3707545 33.9792838,31.287627 C41.3719187,28.8982628 44.9920028,12.9228706 41.193954,5.53541515 C39.6612209,2.55414823 35.7454023,1.04020734 33.1225263,1.5873562 C31.3692994,1.95309064 28.7752537,3.08511528 27.0262837,4.56311868 C24.5474767,6.65788602 23.8233837,9.21216646 25.4255531,12.3807111 Z"></path>
        </g>
    </g>
</svg>