<?xml version="1.0" encoding="UTF-8"?>
<svg width="44px" height="268px" viewBox="0 0 44 268" version="1.1" xmlns="http://www.w3.org/2000/svg" xmlns:xlink="http://www.w3.org/1999/xlink">
    <!-- Generator: Sketch 52.4 (67378) - http://www.bohemiancoding.com/sketch -->
    <title>皮肤软组织</title>
    <desc>Created with Sketch.</desc>
    <g id="皮肤软组织" stroke="none" stroke-width="1" fill="none" fill-rule="evenodd">
        <path d="M0.00215437925,1.02743896 C17.4827381,5.31096367 26.9279131,11.9755424 28.3376795,21.0211752 C30.4523289,34.5896243 28.3376795,101.226329 28.3376795,106.224207 C28.3376795,111.222085 29.3566671,118.772284 30.9068174,123.865805 C32.4569677,128.959325 33.946001,145.251362 34.7310771,157.985163 C35.5161532,170.718964 34.7833044,198.548238 36.776831,206.828466 C38.7703576,215.108694 45.5726838,242.190065 43.2241228,249.82423 C40.8755617,257.458394 28.7510529,267.780001 25.8924424,267.780001 C23.0338319,267.780001 23.450539,261.806236 29.620026,258.164035 C35.7895131,254.521834 33.4759554,243.511823 30.9068174,241.68405 C28.3376795,239.856277 28.2404478,240.006969 27.4814853,244.430436 C26.7225229,248.853903 27.0742236,256.891211 23.3683088,253.909055 C19.6623939,250.926899 21.5881362,242.156146 20.625265,237.827209 C19.6623939,233.498273 27.4814853,221.090807 27.4814853,211.060476 C27.4814853,201.030144 8.86467178,141.784036 7.7212803,134.90788 C6.95901932,130.323776 6.35406866,106.631508 5.90642831,63.8310781 L0.00215437925,1.02743896 Z" fill="#F5F5F5"></path>
    </g>
</svg>